<svg xmlns="http://www.w3.org/2000/svg" xml:space="preserve" width="850" height="550" version="1.0"><path fill="#161" stroke="#fff" stroke-linecap="round" stroke-linejoin="round" stroke-width="2" d="M1 1h848v548H1z"/><path fill="none" stroke="#fff" stroke-linecap="round" stroke-linejoin="round" stroke-width="2" d="M50 50v350a100 100 0 0 0 100 100h400v-50h-50V150h50V50zm450 200H150m0-100h350m-250-25h300m0-50H250m250 75V50m-50 0v100m-50 0V50m-50 0v100m-50 0V50m-50 0v100m250 250H200l-50-50V50m-50 0v350a50 50 0 0 0 50 50h350m-300-50v50m-50-100h-50"/><g fill="#fff"><path d="M276 104V89l-9.3 15zm8.1 9.3h-12v-1.9h4.4V106h-12v-2l12-19h3.6v19h5.2v2h-5.2v5.4h4.4z" aria-label="4"/><path d="M332 86v3h-13v7.8q.95-.66 2.2-.99 1.3-.33 2.9-.33 4.4 0 7 2.5 2.6 2.5 2.6 6.7 0 4.3-2.6 6.8-2.6 2.4-7.3 2.4-1.9 0-3.9-.46t-4-1.4v-5.3h2.1q.16 2.6 1.6 4 1.5 1.4 4.2 1.4 2.9 0 4.4-1.9 1.6-1.9 1.6-5.5t-1.6-5.4q-1.5-1.9-4.4-1.9-1.6 0-2.9.59-1.2.59-2.2 1.8h-1.6v-14z" aria-label="5"/><g aria-label="SIX" transform="rotate(-45)"><path d="M180 342v-2.9h.98q.04 1.5.84 2.2.8.7 2.4.7 1.5 0 2.3-.6.8-.61.8-1.8 0-.92-.49-1.4-.48-.5-2-.97l-1.7-.5q-1.8-.56-2.6-1.4-.74-.83-.74-2.3 0-1.6 1.2-2.5 1.2-.9 3.2-.9.89 0 1.9.2 1.1.19 2.3.56v2.7h-.97q-.15-1.4-.91-1.9-.75-.61-2.3-.61-1.4 0-2.1.56-.7.55-.7 1.6 0 .9.53 1.4.53.52 2.2 1l1.6.47q1.7.52 2.5 1.3.74.8.74 2.2 0 1.9-1.2 2.8-1.2.94-3.5.94-1.1 0-2.1-.21-1.1-.21-2.2-.65zM195 342h1.6v.91h-5V342h1.6v-11h-1.6v-.91h5v.91H195zM203 337l-3.1 4.6h1.6v.91h-4.2v-.91h1.5l3.7-5.4-3.7-5.6h-1.4v-.91h5.1v.91H201l2.7 4.1 2.8-4.1h-1.6v-.91h4.2v.91h-1.4l-3.4 4.9 4 6h1.4v.91h-5.1v-.91h1.5z"/></g><g aria-label="NINE" transform="rotate(-45)"><path d="M241 413v-.91h1.7v-11H241v-.91h3.3l7.6 10v-9.2h-1.7v-.91h4.5v.91H253v12h-1l-8.2-11v9.6h1.7v.91zM260 412h1.6v.91h-5V412h1.6v-11h-1.6v-.91h5v.91H260zM263 413v-.91h1.7v-11H263v-.91h3.3l7.6 10v-9.2h-1.7v-.91h4.5v.91H275v12h-1l-8.2-11v9.6h1.7v.91zM279 413v-.91h1.6v-11H279v-.91h10v2.8h-1.1v-1.8H282v4.3h4.2v-1.6h1.1v4.2h-1.1v-1.6H282v5.3h6v-1.8h1.1v2.8z"/></g><path d="M431 106q0-2.9-1.5-4.5-1.4-1.6-4.1-1.6-2.6 0-4.1 1.6-1.4 1.6-1.4 4.5t1.4 4.6q1.5 1.6 4.1 1.6 2.6 0 4.1-1.6 1.5-1.6 1.5-4.6zm-.75-13q0-2.5-1.3-3.9t-3.5-1.4q-2.3 0-3.5 1.4-1.3 1.4-1.3 3.9t1.3 3.9q1.3 1.4 3.5 1.4 2.3 0 3.5-1.4 1.3-1.4 1.3-3.9zm-2 6.2q3.1.42 4.9 2.3 1.7 1.9 1.7 4.8 0 3.8-2.4 5.9-2.4 2.1-7 2.1-4.5 0-7-2.1-2.4-2.1-2.4-5.9 0-2.9 1.7-4.8t4.9-2.3q-2.8-.49-4.2-2.1-1.5-1.6-1.5-4.1 0-3.3 2.3-5.2 2.3-1.9 6.2-1.9 4 0 6.2 1.9 2.3 1.9 2.3 5.2 0 2.5-1.5 4.1-1.5 1.6-4.2 2.1z" aria-label="8"/><g aria-label="10"><path d="M506 114v-1.9h4.8v-23l-5.5 3.6v-2.4L512 86h2.5v26h4.8v1.9zM537 112q2.8 0 4.2-3.1t1.4-9.3q0-6.2-1.4-9.3t-4.2-3.1q-2.8 0-4.2 3.1t-1.4 9.3q0 6.2 1.4 9.3t4.2 3.1zm0 1.8q-4.4 0-7-3.7-2.5-3.7-2.5-10 0-6.7 2.5-10 2.5-3.7 7-3.7t7 3.7q2.5 3.7 2.5 10 0 6.7-2.5 10-2.5 3.7-7 3.7z"/></g></g><g fill="red" stroke-linecap="round" stroke-linejoin="round" stroke-width="2" aria-label="COME"><path d="M254 213q-2.4 7.7-8.1 12-5.7 3.9-14 3.9-5.3 0-9.9-1.8-4.6-1.8-8.1-5.4-4.1-4.1-6.1-9.3-2-5.2-2-12 0-13 7.4-21 7.4-7.8 19-7.8 4.5 0 9.5 1.2 5.1 1.2 11 3.6v13h-4.1q-1.4-6.9-5.5-10-4.1-3.3-11-3.3-8.8 0-13 6.2-4.5 6.2-4.5 18 0 12 4.5 18 4.5 6.2 13 6.2 6.1 0 10-2.9 4-2.9 5.7-8.7zM289 224q9 0 14-6.2 4.6-6.2 4.6-18 0-12-4.6-18-4.6-6.2-14-6.2-9 0-14 6.2-4.6 6.2-4.6 18 0 12 4.6 18 4.6 6.2 14 6.2zm0 3.9q-5.6 0-10-1.8-4.7-1.8-8.2-5.4-4.1-4.1-6.1-9.3-2-5.2-2-12t2-12q2-5.2 6.1-9.3 3.6-3.6 8.2-5.4 4.6-1.8 10-1.8 12 0 19 7.8 7.3 7.8 7.3 21 0 6.6-2 12-2 5.2-6.1 9.3-3.6 3.6-8.2 5.4-4.6 1.8-10 1.8zM324 227v-3.9h7v-47h-7.4v-3.9h16l19 39 19-39h15v3.9h-7.3v47h7v3.9h-21v-3.9h7v-42l-19 38h-5.2l-19-38v42h7v3.9zM400 227v-3.9h7v-47h-7v-3.9h44v12h-4.5v-7.7h-25v18h18v-6.8h4.5v18h-4.5v-6.8h-18v23h26v-7.7h4.5v12z"/></g><g fill="#ff0" stroke-linecap="round" stroke-linejoin="round" stroke-width="2"><g aria-label="FIELD"><path d="M246 364v-2.6h4.6v-31H246v-2.6h30v8.1h-3v-5.1h-17v12h12v-4.6h3v12h-3v-4.6h-12v16h5.8v2.6zM290 361h4.6v2.6h-14V361h4.6v-31h-4.6v-2.6h14v2.6H290zM300 364v-2.6h4.6v-31H300v-2.6h29v8.1h-3v-5.1h-17v12h12v-4.6h3v12h-3v-4.6h-12v15h17v-5.1h3v8.1zM337 364v-2.6h4.6v-31H337v-2.6h14v2.6h-4.6v31h17v-6.1h3v9.1zM379 361h4.5q7.1 0 11-4.1 3.8-4.1 3.8-12 0-7.6-3.8-12-3.8-4-11-4H379zm-9.6 2.6V361h4.6v-31h-4.6v-2.6h15q9.4 0 15 4.8 5.3 4.8 5.3 13 0 8.6-5.3 13-5.3 4.8-15 4.8z"/></g><g aria-label="3·4·9·10·11"><path d="M237 289q1.8-.69 3.5-1 1.7-.36 3.2-.36 3.4 0 5.3 1.5t1.9 4.1q0 2.1-1.3 3.5t-3.8 1.9q2.9.41 4.5 2.1 1.6 1.7 1.6 4.3 0 3.3-2.2 5-2.2 1.7-6.3 1.7-1.8 0-3.6-.39-1.7-.39-3.5-1.2v-4.5h1.8q.16 2.2 1.5 3.4 1.4 1.2 3.8 1.2t3.8-1.4q1.4-1.4 1.4-3.8 0-2.8-1.4-4.2-1.4-1.4-4.2-1.4h-1.5v-1.6h.78q2.7 0 4.1-1.1 1.4-1.1 1.4-3.4 0-2-1.1-3.1t-3.2-1.1q-2.1 0-3.3 1-1.2 1-1.4 3h-1.8zM257 301q0-.88.59-1.5.61-.61 1.5-.61.86 0 1.5.61.61.61.61 1.5 0 .88-.61 1.5-.61.59-1.5.59t-1.5-.59q-.59-.59-.59-1.5zM275 304v-12l-8 12zm6.9 7.9h-11v-1.7h3.8v-4.6h-10v-1.7l10-16h3.1v16h4.5v1.7h-4.5v4.6h3.8zM287 301q0-.88.59-1.5.61-.61 1.5-.61.86 0 1.5.61.61.61.61 1.5 0 .88-.61 1.5-.61.59-1.5.59t-1.5-.59q-.59-.59-.59-1.5zM309 301q-1 1.2-2.4 1.8-1.4.58-3.1.58-3.5 0-5.5-2.1t-2-5.7q0-3.5 2.2-5.7 2.2-2.1 5.8-2.1 4 0 6.1 3 2.1 2.9 2.1 8.4 0 6.1-2.5 9.5-2.5 3.4-7.1 3.4-1.2 0-2.6-.23-1.4-.23-2.8-.7v-3.9h1.8q.2 1.6 1.2 2.4 1 .84 2.7.84 3 0 4.5-2.3t1.5-7.1zm-5.1-12q-2.2 0-3.4 1.6-1.2 1.6-1.2 4.6t1.2 4.7q1.2 1.6 3.4 1.6t3.4-1.6q1.2-1.6 1.2-4.5 0-3.1-1.2-4.8-1.2-1.7-3.4-1.7zM318 301q0-.88.59-1.5.61-.61 1.5-.61.86 0 1.5.61.61.61.61 1.5 0 .88-.61 1.5-.61.59-1.5.59t-1.5-.59q-.59-.59-.59-1.5zM330 312v-1.7h4.1v-19l-4.7 3v-2l5.7-3.7h2.2v22h4.1v1.7zM356 311q2.4 0 3.6-2.6t1.2-7.9q0-5.3-1.2-7.9T356 290q-2.4 0-3.6 2.6t-1.2 7.9q0 5.3 1.2 7.9t3.6 2.6zm0 1.5q-3.8 0-5.9-3.2-2.1-3.2-2.1-8.9t2.1-8.9q2.1-3.2 5.9-3.2 3.8 0 5.9 3.2t2.1 8.9q0 5.7-2.1 8.9t-5.9 3.2zM369 301q0-.88.59-1.5.61-.61 1.5-.61.86 0 1.5.61.61.61.61 1.5 0 .88-.61 1.5-.61.59-1.5.59t-1.5-.59q-.59-.59-.59-1.5zM380 312v-1.7h4.1v-19l-4.7 3v-2l5.7-3.7h2.2v22h4.1v1.7zM401 312v-1.7h4.1v-19l-4.7 3v-2l5.7-3.7h2.2v22h4.1v1.7z"/></g><path d="M194 294h-1.8v-4.2q1.7-.89 3.4-1.4 1.7-.47 3.3-.47 3.6 0 5.8 1.8 2.1 1.8 2.1 4.8 0 3.4-4.8 8.2l-.56.55-5.9 5.9h9.7v-2.9h1.8v5.4h-15v-1.7l7.1-7.1q2.3-2.3 3.3-4.3t1-4.1q0-2.4-1.2-3.7-1.2-1.3-3.4-1.3t-3.5 1.1q-1.2 1.1-1.4 3.3z" aria-label="2"/><g aria-label="12"><path d="M434 312v-1.7h4.1v-19l-4.7 3v-2l5.7-3.7h2.2v22h4.1v1.7zM454 294h-1.8v-4.2q1.7-.89 3.4-1.4 1.7-.47 3.3-.47 3.6 0 5.8 1.8 2.1 1.8 2.1 4.8 0 3.4-4.8 8.2l-.56.55-5.9 5.9h9.7v-2.9h1.8v5.4h-15v-1.7l7.1-7.1q2.3-2.3 3.3-4.3t1-4.1q0-2.4-1.2-3.7-1.2-1.3-3.4-1.3t-3.5 1.1q-1.2 1.1-1.4 3.3z"/></g></g><g stroke-linecap="round" stroke-linejoin="round" stroke-width="2"><circle cx="200" cy="300" r="25" fill="none" stroke="#ff0"/><circle cx="450" cy="300" r="25" fill="none" stroke="#ff0"/><g fill="#ff0" aria-label="Pays Double"><path d="M189 331h1.5q.87 0 1.3-.47.46-.47.46-1.4 0-.9-.46-1.4t-1.3-.47H189zm-2.3 4.5v-.62h1.1v-7.5h-1.1v-.63h4.1q1.3 0 2.1.67.77.66.77 1.8 0 1.1-.77 1.8t-2.1.67H189v3.2h1.4v.62zM198 333v-1.3h-1.4q-.8 0-1.2.35-.39.35-.39 1.1 0 .65.4 1 .4.38 1.1.38.67 0 1.1-.42.42-.42.42-1.1zm1.1-1.9v3.3h.96v.62h-2v-.67q-.36.43-.83.64-.47.21-1.1.21-1 0-1.6-.55-.61-.55-.61-1.5 0-.97.7-1.5t2-.53h1.5v-.43q0-.71-.43-1.1-.43-.39-1.2-.39-.64 0-1 .29-.38.29-.47.87h-.56v-1.3q.56-.24 1.1-.36.53-.12 1-.12 1.3 0 2 .64.68.64.68 1.9zM203 336l.41-1-2.3-5.7h-.71v-.63h2.9v.63h-1l1.8 4.3 1.8-4.3h-.93v-.63h2.3v.63h-.7l-2.9 7q-.29.73-.65.99-.36.27-1 .27-.28 0-.57-.05-.29-.04-.58-.13v-1.2h.55q.04.4.2.57.17.18.52.18.32 0 .52-.18t.42-.7zM208 335v-1.5h.62q.02.7.43 1 .42.35 1.2.35.73 0 1.1-.27.38-.28.38-.8 0-.41-.28-.66-.28-.25-1.2-.54l-.78-.26q-.8-.26-1.2-.64-.36-.39-.36-.98 0-.86.63-1.3.63-.49 1.7-.49.49 0 1 .13.54.13 1.1.38v1.4h-.62q-.02-.6-.42-.94-.4-.34-1.1-.34-.68 0-1 .24-.35.24-.35.72 0 .39.26.63.26.23 1.1.48l.86.26q.88.28 1.3.69.39.41.39 1.1 0 .88-.68 1.4-.67.5-1.9.5-.6 0-1.2-.13-.57-.13-1.1-.39zM181 346h1.1q1.7 0 2.6-.97.91-.97.91-2.8 0-1.8-.91-2.8-.91-.96-2.6-.96H181zm-2.3.62V346h1.1v-7.5h-1.1v-.63h3.5q2.3 0 3.5 1.2 1.3 1.2 1.3 3.2 0 2.1-1.3 3.2-1.3 1.2-3.5 1.2zM192 347q.87 0 1.3-.69.45-.69.45-2t-.45-2q-.44-.69-1.3-.69t-1.3.69q-.44.68-.44 2t.45 2q.45.69 1.3.69zm0 .58q-1.4 0-2.2-.9-.83-.9-.83-2.4t.82-2.4q.83-.9 2.2-.9 1.4 0 2.2.9.83.9.83 2.4t-.83 2.4q-.82.9-2.2.9zM199 341h2v5.6h1v.62h-2.1v-1.1q-.3.62-.77.95-.47.32-1.1.32-1 0-1.5-.59-.49-.59-.49-1.9v-3.3h-.97v-.63h2.1v3.6q0 1.1.28 1.6.28.42 1 .42.75 0 1.1-.55.39-.55.39-1.6v-2.8H199zM204 346v-7.9h-1v-.62h2.1v3.9q.32-.59.8-.86.49-.28 1.2-.28 1.1 0 1.9.91.73.91.73 2.4 0 1.5-.73 2.4-.73.91-1.9.91-.72 0-1.2-.28-.49-.28-.8-.87v.97H203v-.62zm1.1-2.2q0 1.1.43 1.7.43.59 1.3.59.83 0 1.2-.66.43-.66.43-2 0-1.3-.43-2-.42-.66-1.2-.66-.82 0-1.3.59-.43.59-.43 1.7zM213 346h1v.62h-3.1V346h1v-7.9h-1v-.62h2.1zM221 344h-4.6v.05q0 1.3.47 1.9.47.64 1.4.64.71 0 1.2-.37.46-.38.64-1.1h.87q-.26 1-.96 1.5-.69.52-1.8.52-1.4 0-2.2-.9-.83-.9-.83-2.4t.81-2.4q.81-.9 2.1-.9 1.4 0 2.2.87.76.87.79 2.5zm-1.3-.62q-.04-1.1-.46-1.6-.42-.56-1.2-.56-.74 0-1.2.56t-.52 1.6zM439 331h1.5q.87 0 1.3-.47.46-.47.46-1.4 0-.9-.46-1.4t-1.3-.47H439zm-2.3 4.5v-.62h1.1v-7.5h-1.1v-.63h4.1q1.3 0 2.1.67.77.66.77 1.8 0 1.1-.77 1.8t-2.1.67H439v3.2h1.4v.62zM448 333v-1.3h-1.4q-.8 0-1.2.35-.39.35-.39 1.1 0 .65.4 1 .4.38 1.1.38.67 0 1.1-.42.42-.42.42-1.1zm1.1-1.9v3.3h.96v.62h-2v-.67q-.36.43-.83.64-.47.21-1.1.21-1 0-1.6-.55-.61-.55-.61-1.5 0-.97.7-1.5t2-.53h1.5v-.43q0-.71-.43-1.1-.43-.39-1.2-.39-.64 0-1 .29-.38.29-.47.87h-.56v-1.3q.56-.24 1.1-.36.53-.12 1-.12 1.3 0 2 .64.68.64.68 1.9zM453 336l.41-1-2.3-5.7h-.71v-.63h2.9v.63h-1l1.8 4.3 1.8-4.3h-.93v-.63h2.3v.63h-.7l-2.9 7q-.29.73-.65.99-.36.27-1 .27-.28 0-.57-.05-.29-.04-.58-.13v-1.2h.55q.04.4.2.57.17.18.52.18.32 0 .52-.18t.42-.7zM458 335v-1.5h.62q.02.7.43 1 .42.35 1.2.35.73 0 1.1-.27.38-.28.38-.8 0-.41-.28-.66-.28-.25-1.2-.54l-.78-.26q-.8-.26-1.2-.64-.36-.39-.36-.98 0-.86.63-1.3.63-.49 1.7-.49.49 0 1 .13.54.13 1.1.38v1.4h-.62q-.02-.6-.42-.94-.4-.34-1.1-.34-.68 0-1 .24-.35.24-.35.72 0 .39.26.63.26.23 1.1.48l.86.26q.88.28 1.3.69.39.41.39 1.1 0 .88-.68 1.4-.67.5-1.9.5-.6 0-1.2-.13-.57-.13-1.1-.39zM431 346h1.1q1.7 0 2.6-.97.91-.97.91-2.8 0-1.8-.91-2.8-.91-.96-2.6-.96H431zm-2.3.62V346h1.1v-7.5h-1.1v-.63h3.5q2.3 0 3.5 1.2 1.3 1.2 1.3 3.2 0 2.1-1.3 3.2-1.3 1.2-3.5 1.2zM442 347q.87 0 1.3-.69.45-.69.45-2t-.45-2q-.44-.69-1.3-.69t-1.3.69q-.44.68-.44 2t.45 2q.45.69 1.3.69zm0 .58q-1.4 0-2.2-.9-.83-.9-.83-2.4t.82-2.4q.83-.9 2.2-.9 1.4 0 2.2.9.83.9.83 2.4t-.83 2.4q-.82.9-2.2.9zM449 341h2v5.6h1v.62h-2.1v-1.1q-.3.62-.77.95-.47.32-1.1.32-1 0-1.5-.59-.49-.59-.49-1.9v-3.3h-.97v-.63h2.1v3.6q0 1.1.28 1.6.28.42 1 .42.75 0 1.1-.55.39-.55.39-1.6v-2.8H449zM454 346v-7.9h-1v-.62h2.1v3.9q.32-.59.8-.86.49-.28 1.2-.28 1.1 0 1.9.91.73.91.73 2.4 0 1.5-.73 2.4-.73.91-1.9.91-.72 0-1.2-.28-.49-.28-.8-.87v.97H453v-.62zm1.1-2.2q0 1.1.43 1.7.43.59 1.3.59.83 0 1.2-.66.43-.66.43-2 0-1.3-.43-2-.42-.66-1.2-.66-.82 0-1.3.59-.43.59-.43 1.7zM463 346h1v.62h-3.1V346h1v-7.9h-1v-.62h2.1zM471 344h-4.6v.05q0 1.3.47 1.9.47.64 1.4.64.71 0 1.2-.37.46-.38.64-1.1h.87q-.26 1-.96 1.5-.69.52-1.8.52-1.4 0-2.2-.9-.83-.9-.83-2.4t.81-2.4q.81-.9 2.1-.9 1.4 0 2.2.87.76.87.79 2.5zm-1.3-.62q-.04-1.1-.46-1.6-.42-.56-1.2-.56-.74 0-1.2.56t-.52 1.6z"/></g><g aria-label="B I G" transform="rotate(45)"><path d="M381 171v-1.2h1.9v-12H381v-1.2h8.6q2.7 0 4 .9 1.3.9 1.3 2.7 0 1.3-.93 2.1-.92.76-2.7.96 2.2.21 3.4 1.2 1.2.97 1.2 2.6 0 2.2-1.6 3.2t-5.1 1zm5.6-8.5h1.3q1.7 0 2.5-.61.81-.62.81-1.9 0-1.3-.79-1.8-.78-.58-2.5-.58h-1.3zm0 7.3h1.4q1.9 0 2.8-.74.9-.74.9-2.3 0-1.6-.91-2.3-.91-.77-2.8-.77h-1.4zM385 191v-1.2h1.9v-12H385v-1.2h7.5v1.2h-1.9v12h1.9v1.2zM394 201q-.44-1.9-1.5-2.8-1-.87-2.9-.87-2.3 0-3.3 1.5-1.1 1.5-1.1 4.8t1 4.8q1 1.5 3.2 1.5.82 0 1.5-.19.7-.19 1.3-.56v-4h-1.8v-1.2h5.3v5.6q-1.6.76-3.3 1.1-1.6.37-3.3.37-3.8 0-5.9-2-2.1-2-2.1-5.5t2.1-5.5q2.1-2 5.9-2 1.6 0 3.1.31t3 .95v3.6z"/></g><g fill="red" aria-label="6 8" transform="rotate(45)"><path d="M365 200q3.4 0 5.3-2.5t1.9-7.3-1.9-7.3q-1.9-2.5-5.3-2.5-3.5 0-5.3 2.4-1.8 2.4-1.8 7.1 0 4.9 1.9 7.5 1.9 2.6 5.3 2.6zm-8-18q1.7-1.8 3.8-2.7t4.7-.9q5.4 0 8.6 3.3 3.2 3.3 3.2 8.9 0 5.5-3.4 8.9-3.4 3.3-9.1 3.3-6.2 0-9.5-4.6t-3.3-13q0-9.6 3.9-15t11-5.2q1.9 0 4.1.37t4.3 1.1v6h-2.8q-.29-2.5-1.9-3.8-1.6-1.3-4.3-1.3-4.7 0-7.1 3.6-2.3 3.6-2.4 11zM420 192q0-3.9-2-6.1-1.9-2.2-5.4-2.2-3.5 0-5.5 2.2-1.9 2.1-1.9 6.1 0 3.9 1.9 6.1 2 2.1 5.5 2.1t5.4-2.1q2-2.2 2-6.1zm-1-18q0-3.3-1.7-5.2t-4.7-1.9q-3 0-4.7 1.9-1.7 1.9-1.7 5.2 0 3.3 1.7 5.2 1.7 1.9 4.7 1.9t4.7-1.9q1.7-1.9 1.7-5.2zm-2.6 8.3q4.2.56 6.5 3.1 2.3 2.5 2.3 6.4 0 5.1-3.2 7.9-3.2 2.8-9.3 2.8-6 0-9.3-2.8-3.2-2.8-3.2-7.9 0-3.9 2.3-6.4 2.3-2.5 6.5-3.1-3.7-.66-5.7-2.8-2-2.1-2-5.5 0-4.4 3-6.9t8.3-2.5 8.3 2.5q3 2.5 3 6.9 0 3.3-2 5.5-2 2.1-5.6 2.8z"/></g></g><g fill="#fff" stroke-linecap="round" stroke-linejoin="round" stroke-width="2"><g aria-label="PASS LINE"><path d="M254 487v-1.9h3v-20h-3v-1.9h13q3.9 0 6.2 1.9 2.3 1.8 2.3 5 0 3.1-2.3 5T267 477h-4.3v7.8h3.8v1.9zm9-12h1.8q2 0 3.2-1.3 1.2-1.4 1.2-3.6t-1.2-3.6q-1.2-1.3-3.2-1.3H263zM274 487v-1.9h1.9l8.8-21h3.7l8.8 21h2.2v1.9h-11v-1.9h2.3l-1.9-4.8H280l-2 4.8h2.8v1.9zm6.9-8.5h7.2l-3.6-8.9zM302 486v-5.5h2q.45 2.6 2.1 3.9 1.7 1.3 4.7 1.3 2.4 0 3.7-.92 1.3-.92 1.3-2.7 0-1.4-.86-2.2-.86-.78-3.5-1.5l-3.5-.86q-3.4-.88-4.8-2.4-1.4-1.6-1.4-4.4 0-3.5 2.3-5.4 2.3-1.9 6.5-1.9 2 0 4.2.34t4.6 1v5.2h-2q-.45-2.4-2-3.5-1.5-1.1-4.4-1.1-2.3 0-3.5.81-1.2.8-1.2 2.4 0 1.5.81 2.2.81.75 4 1.6l3.5.86q3.2.81 4.7 2.5 1.5 1.7 1.5 4.7 0 3.5-2.4 5.4-2.4 1.8-7.2 1.8-2.3 0-4.5-.39t-4.6-1.2zM324 486v-5.5h2q.45 2.6 2.1 3.9 1.7 1.3 4.7 1.3 2.4 0 3.7-.92 1.3-.92 1.3-2.7 0-1.4-.86-2.2-.86-.78-3.5-1.5l-3.5-.86q-3.4-.88-4.8-2.4-1.4-1.6-1.4-4.4 0-3.5 2.3-5.4 2.3-1.9 6.5-1.9 2 0 4.2.34t4.6 1v5.2h-2q-.45-2.4-2-3.5-1.5-1.1-4.4-1.1-2.3 0-3.5.81-1.2.8-1.2 2.4 0 1.5.81 2.2.81.75 4 1.6l3.5.86q3.2.81 4.7 2.5 1.5 1.7 1.5 4.7 0 3.5-2.4 5.4-2.4 1.8-7.2 1.8-2.3 0-4.5-.39t-4.6-1.2zM358 487v-1.9h3v-20h-3v-1.9h12v1.9h-3v19h9.2v-3.7h2.1v5.8zM380 487v-1.9h3v-20h-3v-1.9h12v1.9h-3v20h3v1.9zM395 487v-1.9h3v-20h-3v-1.9h7.3l14 17v-15h-3v-1.9h8.2v1.9h-3v21h-4.1l-14-17v15h3v1.9zM424 487v-1.9h3v-20h-3v-1.9h21v5.5h-2.2v-3.4H433v7.5h6.1v-3h2.1v8.1h-2.1v-3H433v9.4h10v-3.4h2.1v5.5z"/></g><g aria-label="PASS LINE" transform="rotate(90)"><path d="M104-63v-1.9h3v-20h-3v-1.9h13q3.9 0 6.2 1.9 2.3 1.8 2.3 5 0 3.1-2.3 5T117-73h-4.3v7.8h3.8v1.9zm9-12h1.8q2 0 3.2-1.3 1.2-1.4 1.2-3.6t-1.2-3.6q-1.2-1.3-3.2-1.3H113zM124-63v-1.9h1.9l8.8-21h3.7l8.8 21h2.2v1.9h-11v-1.9h2.3l-1.9-4.8H130l-2 4.8h2.8v1.9zm6.9-8.5h7.2l-3.6-8.9zM152-64v-5.5h2q.45 2.6 2.1 3.9t4.7 1.3q2.4 0 3.7-.92 1.3-.92 1.3-2.7 0-1.4-.86-2.2-.86-.78-3.5-1.5l-3.5-.86q-3.4-.88-4.8-2.4-1.4-1.6-1.4-4.4 0-3.5 2.3-5.4 2.3-1.9 6.5-1.9 2 0 4.2.34t4.6 1v5.2h-2q-.45-2.4-2-3.5-1.5-1.1-4.4-1.1-2.3 0-3.5.81-1.2.8-1.2 2.4 0 1.5.81 2.2.81.75 4 1.6l3.5.86q3.2.81 4.7 2.5 1.5 1.7 1.5 4.7 0 3.5-2.4 5.4-2.4 1.8-7.2 1.8-2.3 0-4.5-.39t-4.6-1.2zM174-64v-5.5h2q.45 2.6 2.1 3.9t4.7 1.3q2.4 0 3.7-.92 1.3-.92 1.3-2.7 0-1.4-.86-2.2-.86-.78-3.5-1.5l-3.5-.86q-3.4-.88-4.8-2.4-1.4-1.6-1.4-4.4 0-3.5 2.3-5.4 2.3-1.9 6.5-1.9 2 0 4.2.34t4.6 1v5.2h-2q-.45-2.4-2-3.5-1.5-1.1-4.4-1.1-2.3 0-3.5.81-1.2.8-1.2 2.4 0 1.5.81 2.2.81.75 4 1.6l3.5.86q3.2.81 4.7 2.5 1.5 1.7 1.5 4.7 0 3.5-2.4 5.4-2.4 1.8-7.2 1.8-2.3 0-4.5-.39t-4.6-1.2zM208-63v-1.9h3v-20h-3v-1.9h12v1.9h-3v19h9.2v-3.7h2.1v5.8zM230-63v-1.9h3v-20h-3v-1.9h12v1.9h-3v20h3v1.9zM245-63v-1.9h3v-20h-3v-1.9h7.3l14 17v-15h-3v-1.9h8.2v1.9h-3v21h-4.1l-14-17v15h3v1.9zM274-63v-1.9h3v-20h-3v-1.9h21v5.5h-2.2v-3.4H283v7.5h6.1v-3h2.1v8.1h-2.1v-3H283v9.4h10v-3.4h2.1v5.5z"/></g><g aria-label="Don’t Pass Bar"><path d="M223 433h2.3q3.6 0 5.8-2 2.3-2 3-5.8.74-3.8-.77-5.8-1.5-2-5.1-2h-2.3zm-5 1.3.24-1.3h2.3l3-16h-2.3l.26-1.3h7.3q4.7 0 6.9 2.4t1.3 6.7q-.83 4.3-3.9 6.7-3.1 2.4-7.8 2.4zM245 433q1.8 0 3-1.4t1.7-4.2q.24-1.3.24-2.3 0-1.2-.34-1.9-.65-1.4-2.5-1.4t-3 1.4q-1.2 1.4-1.7 4.2-.24 1.3-.24 2.2 0 1.2.35 2 .65 1.4 2.4 1.4zm-.23 1.2q-2.8 0-4.2-1.9-.94-1.3-.94-3.2 0-.84.18-1.8.6-3.1 2.7-5t4.9-1.9q2.8 0 4.2 1.9.93 1.3.93 3.2 0 .84-.18 1.8-.6 3.1-2.7 5t-4.9 1.9zM256 434l2.3-12h-2.1l.24-1.3h4.4l-.44 2.3q.88-1.3 2-2 1.1-.67 2.4-.67 2.1 0 2.9 1.2.46.74.46 2 0 .82-.21 1.9l-1.4 7h2l-.24 1.3h-4.3l1.5-7.5q.24-1.3.24-2.1 0-.74-.2-1.2-.42-.88-1.9-.88-1.6 0-2.6 1.1t-1.5 3.3l-1.4 7.2zM271 421q1.1-.77 1.7-1.8.63-1 .94-2.6l.15-.74h2.4q-.42 2.1-1.5 3.6-1 1.5-2.9 2.6zM281 422h-2l.26-1.3h2l.78-4h2.3l-.78 4h4.2l-.26 1.3h-4.2l-1.6 8.2q-.18.96-.18 1.5 0 .39.09.59.22.46 1.1.46.88 0 1.4-.51.5-.52.75-1.7h1.7q-.44 1.8-1.5 2.6t-2.8.82q-1.9 0-2.6-.87-.39-.52-.39-1.5 0-.62.16-1.4zM302 425h3.2q1.8 0 3-.98 1.1-.99 1.5-2.8.37-1.9-.4-2.8-.76-.98-2.6-.98h-3.2zm-6.6 9.3.24-1.3h2.3l3-16h-2.3l.26-1.3h8.6q2.7 0 4.1 1.4 1.3 1.4.87 3.7-.45 2.3-2.3 3.7-1.9 1.4-4.6 1.4h-3.8l-1.3 6.7h2.8l-.24 1.3zM321 432q-1.6 2.4-4.2 2.4-2.1 0-3.2-1.5-.76-1-.76-2.5 0-.62.13-1.3.83-4.3 3.8-6.5 2.6-1.9 5.6-1.9 2.1 0 2.8.35l-2.3 12h1.9l-.24 1.3h-4zm-5.9-1.6q0 2.6 2.5 2.6 1.5 0 2.6-1.2 1-1.2 1.5-3.6l1.1-5.9q0-.35-.98-.35-2.3 0-4.2 1.8-1.8 1.8-2.5 5.2-.16.78-.16 1.4zM327 430h1.3q-.05.35-.05.67 0 2.2 3 2.2t3.5-2.2q.04-.22.04-.61 0-.38-.42-.83-.42-.46-2.2-1.1l-1.5-.55q-1.6-.54-2.1-1.2-.5-.7-.5-1.5 0-.32.06-.68.35-1.8 1.9-2.8 1.5-1 3.7-1t4.4 1l-.55 2.8h-1.3q.05-.28.05-.52 0-.89-.62-1.5-.61-.63-2-.63-2.9 0-3.3 2-.05.21-.05.57 0 .38.39.81.4.43 2 .94l1.7.55q1.7.57 2.4 1.4.45.61.45 1.2 0 2.6-2.1 3.9-1.6 1.1-4.1 1.1t-4.7-1.1zM340 430h1.3q-.05.35-.05.67 0 2.2 3 2.2t3.5-2.2q.04-.22.04-.61 0-.38-.42-.83-.42-.46-2.2-1.1l-1.5-.55q-1.6-.54-2.1-1.2-.5-.7-.5-1.5 0-.32.06-.68.35-1.8 1.9-2.8 1.5-1 3.7-1t4.4 1l-.55 2.8h-1.3q.05-.28.05-.52 0-.89-.62-1.5-.61-.63-2-.63-2.9 0-3.3 2-.05.21-.05.57 0 .38.39.81.4.43 2 .94l1.7.55q1.7.57 2.4 1.4.45.61.45 1.2 0 2.6-2.1 3.9-1.6 1.1-4.1 1.1t-4.7-1.1zM365 433h3.6q2.2 0 3.4-.95 1.2-.95 1.6-3 .4-2.1-.43-3-.82-.95-3-.95h-3.6zm1.8-9.2h3.1q2 0 3.1-.77t1.4-2.4q.33-1.7-.45-2.4-.77-.77-2.8-.77h-3.1zm-6.8 11 .24-1.3h2.3l3-16h-2.3l.26-1.3h9q2.8 0 3.9 1.1 1.2 1.1.74 3.4-.31 1.6-1.5 2.6-1.2.96-3.1 1.2 2.3.29 3.2 1.5.98 1.2.59 3.2-.52 2.7-2.5 4-2 1.3-5.6 1.3zM388 432q-1.6 2.4-4.2 2.4-2.1 0-3.2-1.5-.76-1-.76-2.5 0-.62.13-1.3.83-4.3 3.8-6.5 2.6-1.9 5.6-1.9 2.1 0 2.8.35l-2.3 12h1.9l-.24 1.3h-4zm-5.9-1.6q0 2.6 2.5 2.6 1.5 0 2.6-1.2 1-1.2 1.5-3.6l1.1-5.9q0-.35-.98-.35-2.3 0-4.2 1.8-1.8 1.8-2.5 5.2-.16.78-.16 1.4zM407 421l-.63 3.2h-1.3q.04-.24.04-.45 0-.63-.3-.99-.37-.48-1.3-.48-1.7 0-2.8 1.1-1.1 1.1-1.5 3.3l-1.4 7.2h-2.2l2.3-12h-2.1l.25-1.3h4.4l-.44 2.3q.92-1.4 2.1-2 1.2-.66 2.7-.66.55 0 1.1.08.59.09 1.2.24z"/></g></g><rect width="25" height="25" x="457" y="412" fill="#fff" ry="2.5"/><circle cx="462" cy="418" r="2.5"/><circle cx="462" cy="425" r="2.5"/><circle cx="462" cy="432" r="2.5"/><circle cx="477" cy="425" r="2.5"/><circle cx="477" cy="432" r="2.5"/><circle cx="477" cy="418" r="2.5"/><rect width="25" height="25" x="419" y="412" fill="#fff" ry="2.5"/><circle cx="424" cy="418" r="2.5"/><circle cx="424" cy="425" r="2.5"/><circle cx="424" cy="432" r="2.5"/><circle cx="439" cy="425" r="2.5"/><circle cx="439" cy="432" r="2.5"/><circle cx="439" cy="418" r="2.5"/><g fill="#fff" stroke-linecap="round" stroke-linejoin="round" stroke-width="2" aria-label="Don’t Come Bar"><path d="M181 74h1q1.7 0 2.7-1.1t1.5-3.5q.46-2.4-.12-3.5-.57-1.1-2.3-1.1h-1zm-4.4.89.17-.89h1.4l1.8-9.2h-1.4l.17-.89h5.6q2.9 0 4.2 1.4 1.3 1.4.78 4.1-.51 2.7-2.4 4.1-1.8 1.4-4.8 1.4zM194 74q.82 0 1.3-.7t.83-2.6q.24-1.2.24-1.9 0-.38-.07-.63-.2-.7-1-.7-.83 0-1.3.71-.48.7-.83 2.6-.23 1.2-.23 1.9 0 .4.07.65.2.71 1 .71zm3.3-.26q-1.4 1.1-3.4 1.1t-3-1.1q-.69-.79-.69-2 0-.47.1-1 .37-1.9 1.8-3 1.4-1.1 3.4-1.1 2.1 0 3 1.1.69.78.69 2 0 .48-.11 1-.37 1.9-1.8 3zM201 75l1.3-6.9h-1.1l.17-.89h3.7l-.21 1.1q.61-.7 1.3-1t1.6-.31q1.3 0 1.8.78.34.49.34 1.3 0 .45-.11.99l-.79 4.1h1.1l-.17.89h-3.7l.97-5q.1-.51.1-.86 0-.32-.09-.51-.18-.38-.8-.38-.78 0-1.3.58-.48.57-.72 1.8l-.85 4.4zM211 67q.8-.49 1.3-1.2.45-.69.65-1.7l.08-.4h2q-.36 1.5-1.2 2.6-.8 1-2.2 1.7zM218 68h-1.1l.17-.89h1.1l.47-2.4h2.6l-.47 2.4h2.2l-.17.89h-2.2l-.93 4.8q-.12.65-.12.98 0 .2.04.29.12.25.54.25.47 0 .75-.31.29-.31.43-.97h1.1q-.3 1.2-.96 1.6-.67.47-2.1.47-1.6 0-2.1-.51-.31-.32-.31-1 0-.37.1-.84zM187 87q-.76 1.7-2 2.5-1.3.82-3.2.82-2.8 0-4.1-1.5-1.3-1.5-.8-4.1.51-2.6 2.4-4.1 1.9-1.5 4.7-1.5.97 0 2 .23 1 .23 2.1.71l-.52 2.7h-.93q-.02-1.4-.64-2.1-.62-.69-1.9-.69-1.6 0-2.6 1.2t-1.5 3.6q-.48 2.4.07 3.6t2.2 1.2q1.1 0 1.9-.61.81-.61 1.4-1.8zM193 89q.82 0 1.3-.7t.83-2.6q.24-1.2.24-1.9 0-.38-.07-.63-.2-.7-1-.7t-1.3.71q-.48.7-.83 2.6-.23 1.2-.23 1.9 0 .4.07.65.2.71 1 .71zm3.3-.26q-1.4 1.1-3.4 1.1-2.1 0-3-1.1-.69-.79-.69-2 0-.47.1-1 .37-1.9 1.8-3 1.4-1.1 3.4-1.1 2.1 0 3 1.1.69.78.69 2 0 .48-.11 1-.37 1.9-1.8 3zM208 83q.69-.78 1.4-1.1.7-.36 1.5-.36 1.3 0 1.9.76.32.48.32 1.3 0 .46-.11 1l-.79 4.1h1.1l-.17.89h-3.7l.89-4.6q.18-.95.18-1.5 0-.26-.05-.39-.15-.38-.75-.38-.7 0-1.2.53-.48.53-.67 1.5l-.92 4.7h-2.6l.89-4.6q.18-.94.18-1.4 0-.27-.05-.4-.15-.38-.75-.38-.7 0-1.2.53-.48.53-.67 1.5l-.92 4.7h-2.6l1.3-6.9h-1.1l.17-.89h3.7l-.21 1.1q.59-.68 1.2-1 .65-.31 1.5-.31.95 0 1.5.37.53.36.7 1.1zM220 84q0-1.1-.91-1.1-.7 0-1.1.66-.41.65-.78 2.7h.16q2.2 0 2.6-1.8.05-.28.05-.51zm-3 3.2q-.04.25-.04.77 0 1.5 1.5 1.5.84 0 1.5-.45.6-.45.92-1.3h1.2q-.57 1.3-1.6 1.9-1.1.62-2.7.62-2 0-2.9-1.1-.61-.75-.61-1.9 0-.51.12-1.1.37-2 1.7-3 1.3-1.1 3.3-1.1 1.4 0 2.4.55.97.54.97 1.5 0 .2-.05.41-.46 2.4-5.5 2.6zM184 105l.17-.89h1.4l1.8-9.2h-1.4l.17-.89h6.5q2 0 2.9.67.87.67.61 2-.18.97-.99 1.5-.81.57-2.2.72 1.6.15 2.4.88.74.73.51 1.9-.31 1.6-1.7 2.4-1.4.77-4 .77zm5.5-6.4h.96q1.3 0 2-.45.7-.46.88-1.4.19-.95-.31-1.4t-1.8-.43h-.96zm-1.1 5.5h1q1.4 0 2.2-.56t1-1.7q.23-1.2-.34-1.8-.56-.58-1.9-.58h-1zM204 99q-.02-.44-.44-.44-.98 0-1.9 1.2-.45.54-.8 2.4-.26 1.4-.07 1.9.19.52.89.52.68 0 1.1-.61.43-.61.7-2zm2.5-1.1-1.3 6.7.97-.01-.18.9h-3.3l.19-1q-.81 1.2-2.2 1.2-1.4 0-2-.92-.63-.94-.31-2.6.31-1.6 1.7-3 1.7-1.7 3.9-1.7t2.5.45zM216 97l-.45 2.3h-.83l.02-.29q0-.41-.18-.64-.23-.31-.79-.31-.85 0-1.5.75-.64.75-.89 2.1l-.77 4h-2.6l1.3-6.9h-1.2l.17-.89h3.8l-.26 1.4q.53-.81 1.2-1.2.7-.4 1.6-.4.23 0 .54.04l.74.08z"/></g><rect width="25" height="25" x="205" y="112" fill="#fff" ry="2.5"/><circle cx="210" cy="118" r="2.5"/><circle cx="210" cy="125" r="2.5"/><circle cx="210" cy="132" r="2.5"/><circle cx="225" cy="125" r="2.5"/><circle cx="225" cy="132" r="2.5"/><circle cx="225" cy="118" r="2.5"/><rect width="25" height="25" x="168" y="112" fill="#fff" ry="2.5"/><circle cx="172" cy="118" r="2.5"/><circle cx="172" cy="125" r="2.5"/><circle cx="172" cy="132" r="2.5"/><circle cx="188" cy="125" r="2.5"/><circle cx="188" cy="132" r="2.5"/><circle cx="188" cy="118" r="2.5"/><g fill="#fff" stroke-linecap="round" stroke-linejoin="round" stroke-width="2" aria-label="Don’t Pass Bar" transform="rotate(90)"><path d="M73-117h2.3q3.6 0 5.8-2 2.3-2 3-5.8.74-3.8-.77-5.8-1.5-2-5.1-2h-2.3zm-5 1.3.24-1.3h2.3l3-16h-2.3l.26-1.3h7.3q4.7 0 6.9 2.4t1.3 6.7q-.83 4.3-3.9 6.7-3.1 2.4-7.8 2.4zM95-117q1.8 0 3-1.4t1.7-4.2q.24-1.3.24-2.3 0-1.2-.34-1.9-.65-1.4-2.5-1.4-1.8 0-3 1.4t-1.7 4.2q-.24 1.3-.24 2.2 0 1.2.35 2 .65 1.4 2.4 1.4zm-.23 1.2q-2.8 0-4.2-1.9-.94-1.3-.94-3.2 0-.84.18-1.8.6-3.1 2.7-5t4.9-1.9q2.8 0 4.2 1.9.93 1.3.93 3.2 0 .84-.18 1.8-.6 3.1-2.7 5t-4.9 1.9zM106-116l2.3-12h-2.1l.24-1.3h4.4l-.44 2.3q.88-1.3 2-2 1.1-.67 2.4-.67 2.1 0 2.9 1.2.46.74.46 2 0 .82-.21 1.9l-1.4 7h2l-.24 1.3h-4.3l1.5-7.5q.24-1.3.24-2.1 0-.74-.2-1.2-.42-.88-1.9-.88-1.6 0-2.6 1.1t-1.5 3.3l-1.4 7.2zM121-129q1.1-.77 1.7-1.8.63-1 .94-2.6l.15-.74h2.4q-.42 2.1-1.5 3.6-1 1.5-2.9 2.6zM131-128h-2l.26-1.3h2l.78-4h2.3l-.78 4h4.2l-.26 1.3h-4.2l-1.6 8.2q-.18.96-.18 1.5 0 .39.09.59.23.46 1.1.46.88 0 1.4-.51.5-.52.76-1.7h1.7q-.44 1.8-1.5 2.6t-2.8.82q-1.9 0-2.6-.87-.4-.52-.4-1.5 0-.62.16-1.4zM152-125h3.2q1.8 0 3-.98 1.1-.99 1.5-2.8.37-1.9-.4-2.8-.76-.98-2.6-.98h-3.2zm-6.6 9.3.24-1.3h2.3l3-16h-2.3l.26-1.3h8.6q2.7 0 4.1 1.4 1.3 1.4.87 3.7-.45 2.3-2.3 3.7-1.9 1.4-4.6 1.4h-3.8l-1.3 6.7h2.8l-.24 1.3zM171-118q-1.6 2.4-4.2 2.4-2.1 0-3.2-1.5-.76-1-.76-2.5 0-.62.13-1.3.83-4.3 3.8-6.5 2.6-1.9 5.6-1.9 2.1 0 2.8.35l-2.3 12h1.9l-.24 1.3h-4zm-5.9-1.6q0 2.6 2.5 2.6 1.5 0 2.6-1.2 1-1.2 1.5-3.6l1.1-5.9q0-.35-.98-.35-2.3 0-4.2 1.8-1.8 1.8-2.5 5.2-.16.78-.16 1.4zM177-120h1.3q-.05.35-.05.67 0 2.2 3 2.2t3.5-2.2q.04-.22.04-.61 0-.38-.42-.83-.42-.46-2.2-1.1l-1.5-.55q-1.6-.54-2.1-1.2-.5-.7-.5-1.5 0-.32.06-.68.35-1.8 1.9-2.8 1.5-1 3.7-1t4.4 1l-.55 2.8h-1.3q.05-.28.05-.52 0-.89-.62-1.5-.61-.63-2-.63-2.9 0-3.3 2-.05.21-.05.57 0 .38.39.81.4.43 2 .94l1.7.55q1.7.57 2.4 1.4.45.61.45 1.2 0 2.6-2.1 3.9-1.6 1.1-4.1 1.1t-4.7-1.1zM190-120h1.3q-.05.35-.05.67 0 2.2 3 2.2t3.5-2.2q.04-.22.04-.61 0-.38-.42-.83-.42-.46-2.2-1.1l-1.5-.55q-1.6-.54-2.1-1.2-.5-.7-.5-1.5 0-.32.06-.68.35-1.8 1.9-2.8 1.5-1 3.7-1t4.4 1l-.55 2.8h-1.3q.05-.28.05-.52 0-.89-.62-1.5-.61-.63-2-.63-2.9 0-3.3 2-.05.21-.05.57 0 .38.39.81.4.43 2 .94l1.7.55q1.7.57 2.4 1.4.45.61.45 1.2 0 2.6-2.1 3.9-1.6 1.1-4.1 1.1t-4.7-1.1zM215-117h3.6q2.2 0 3.4-.95 1.2-.95 1.6-3 .4-2.1-.43-3-.82-.95-3-.95h-3.6zm1.8-9.2h3.1q2 0 3.1-.77t1.4-2.4q.33-1.7-.45-2.4-.77-.77-2.8-.77h-3.1zm-6.8 11 .24-1.3h2.3l3-16h-2.3l.26-1.3h9q2.8 0 3.9 1.1 1.2 1.1.74 3.4-.31 1.6-1.5 2.6-1.2.96-3.1 1.2 2.3.29 3.2 1.5.98 1.2.59 3.2-.52 2.7-2.5 4-2 1.3-5.6 1.3zM238-118q-1.6 2.4-4.2 2.4-2.1 0-3.2-1.5-.76-1-.76-2.5 0-.62.13-1.3.83-4.3 3.8-6.5 2.6-1.9 5.6-1.9 2.1 0 2.8.35l-2.3 12h1.9l-.24 1.3h-4zm-5.9-1.6q0 2.6 2.5 2.6 1.5 0 2.6-1.2 1-1.2 1.5-3.6l1.1-5.9q0-.35-.98-.35-2.3 0-4.2 1.8-1.8 1.8-2.5 5.2-.16.78-.16 1.4zM257-129l-.63 3.2h-1.3q.04-.24.04-.45 0-.63-.3-.99-.37-.48-1.3-.48-1.7 0-2.8 1.1-1.1 1.1-1.5 3.3l-1.4 7.2h-2.2l2.3-12h-2.1l.25-1.3h4.4l-.44 2.3q.92-1.4 2.1-2 1.2-.66 2.7-.66.55 0 1.1.09.59.08 1.2.24z"/></g><rect width="25" height="25" x="307" y="-138" fill="#fff" ry="2.5" transform="rotate(90)"/><circle cx="312" cy="-132" r="2.5" transform="rotate(90)"/><circle cx="312" cy="-125" r="2.5" transform="rotate(90)"/><circle cx="312" cy="-118" r="2.5" transform="rotate(90)"/><circle cx="327" cy="-125" r="2.5" transform="rotate(90)"/><circle cx="327" cy="-118" r="2.5" transform="rotate(90)"/><circle cx="327" cy="-132" r="2.5" transform="rotate(90)"/><rect width="25" height="25" x="269" y="-138" fill="#fff" ry="2.5" transform="rotate(90)"/><circle cx="274" cy="-132" r="2.5" transform="rotate(90)"/><circle cx="274" cy="-125" r="2.5" transform="rotate(90)"/><circle cx="274" cy="-118" r="2.5" transform="rotate(90)"/><circle cx="289" cy="-125" r="2.5" transform="rotate(90)"/><circle cx="289" cy="-118" r="2.5" transform="rotate(90)"/><circle cx="289" cy="-132" r="2.5" transform="rotate(90)"/><g stroke-linecap="round" stroke-linejoin="round" stroke-width="2"><path fill="none" stroke="#fff" d="M650 50a50 50 0 0 0-50 50v350a50 50 0 0 0 50 50h100a50 50 0 0 0 50-50V100a50 50 0 0 0-50-50zm150 75H600m200 75H600m200 75H600m200 75H600m200 75H600m100 0V125"/><g fill="red" aria-label="Seven 4 to 1"><path d="m652 86 1-5.3 1.8.02q-.44 2.7.77 3.9 1.2 1.3 4.2 1.3 2.8 0 4.5-1.1 1.7-1.1 2.1-3.2.33-1.7-.39-2.6-.7-.91-3.4-1.8l-2.9-.92q-3.2-1-4.2-2.5-1.1-1.5-.55-4.2.58-3 3-4.6 2.4-1.6 6.2-1.6 1.6 0 3.5.36 1.9.34 3.9 1l-.95 5h-1.8q.2-2.5-.97-3.6-1.2-1.1-4-1.1-2.5 0-4 1t-1.9 2.9q-.33 1.7.45 2.6t3.8 1.9l2.7.86q3 .95 4 2.4 1.1 1.5.58 4-.66 3.4-3.2 5.1-2.5 1.7-6.8 1.7-1.9 0-3.8-.4-1.9-.38-3.8-1.2zM677 81q-.06.59-.06 1.1 0 1.5.53 2.4.92 1.7 3.4 1.7 1.8 0 2.7-.55 1.6-.98 2-2.2h2.1q-.62 2-3 3.4-1.6.97-4.8.97t-5-2.4q-1.2-1.7-1.2-4.1 0-1.1.23-2.3.77-4 3.4-6.4 2.6-2.4 6.4-2.4 6.1 0 6.1 4.3 0 3.2-3.2 4.7-3.3 1.6-9.6 1.6zm8-3.5q1.8-1 1.8-3 0-2.7-3.5-2.7-2.1 0-3.5 1.6-1.5 1.6-2.3 5.9 5-.23 7.7-1.8zM700 88h-2.1l-3.2-15h-1.9l.31-1.7h4.3l2.8 13q1.8-1.6 3-3.5 2.5-4.1 3.4-7.9h-1.9l.33-1.7h4.3q-1.7 6.4-3.9 10-1.9 3.1-5.5 6.6zM714 81q-.06.59-.06 1.1 0 1.5.53 2.4.92 1.7 3.4 1.7 1.8 0 2.7-.55 1.6-.98 2-2.2h2.1q-.62 2-3 3.4-1.6.97-4.8.97t-5-2.4q-1.2-1.7-1.2-4.1 0-1.1.23-2.3.77-4 3.4-6.4 2.6-2.4 6.4-2.4 6.1 0 6.1 4.3 0 3.2-3.2 4.7-3.3 1.6-9.6 1.6zm8-3.5q1.8-1 1.8-3 0-2.7-3.5-2.7-2.1 0-3.5 1.6-1.5 1.6-2.3 5.9 5-.23 7.7-1.8zM731 88l2.9-15h-2.8l.31-1.7h5.6l-.56 3q1.1-1.7 2.6-2.5t3.1-.86q2.8 0 3.8 1.6.59.95.59 2.5 0 1-.27 2.4l-1.7 8.9h2.6l-.31 1.7h-5.5l1.9-9.7q.31-1.6.31-2.7 0-.95-.25-1.5-.53-1.1-2.4-1.1-2 0-3.3 1.5-1.3 1.5-1.9 4.2l-1.8 9.2z"/><g fill="#fff"><path d="m673 104 1.8-9.3-7.8 9.3zm4 5.9h-8l.25-1.2h2.8l.67-3.4h-7.6l.25-1.3 10-12h2.3l-2.3 12h3.3l-.25 1.3h-3.3l-.67 3.4h2.8zM691 99h-1.9l.25-1.3h1.9l.75-3.9h2.2l-.75 3.9h4.1l-.25 1.3h-4.1l-1.5 7.9q-.18.93-.18 1.5 0 .38.08.56.22.45 1 .45.84 0 1.3-.49.5-.5.73-1.6h1.6q-.42 1.7-1.4 2.5-.98.79-2.7.79-1.9 0-2.5-.83-.38-.5-.38-1.4 0-.6.15-1.4zM704 110q1.7 0 2.9-1.4t1.7-4q.23-1.2.23-2.2 0-1.1-.33-1.9-.62-1.4-2.4-1.4-1.7 0-2.9 1.4-1.1 1.4-1.7 4-.23 1.2-.23 2.2 0 1.1.34 1.9.62 1.4 2.3 1.4zm-.22 1.2q-2.7 0-4-1.8-.9-1.3-.9-3.1 0-.81.18-1.7.57-3 2.6-4.8 2-1.8 4.7-1.8t4 1.8q.89 1.2.89 3 0 .81-.18 1.7-.57 3-2.6 4.8-2 1.8-4.7 1.8zM721 110l.25-1.2h3l2.8-15-4 2.3.3-1.5 4.8-2.8h1.6l-3.2 17h3l-.25 1.2z"/></g></g><g fill="red" aria-label="Any Craps 7 to 1"><path d="M622 454h8.6l-2.1-11zm-8.2 8.5.31-1.7h2l13-22h2.6l4.1 22h2.3l-.31 1.7h-8.5l.31-1.7h2.6l-.95-5.1h-9.8l-3 5.1h2.6l-.31 1.7zM641 462l2.9-15h-2.8l.31-1.7h5.6l-.56 3q1.1-1.7 2.6-2.5 1.4-.86 3.1-.86 2.8 0 3.8 1.6.59.95.59 2.5 0 1-.27 2.4l-1.7 8.9h2.6l-.31 1.7h-5.5l1.9-9.7q.31-1.6.31-2.7 0-.95-.25-1.5-.53-1.1-2.4-1.1-2 0-3.3 1.5-1.3 1.5-1.9 4.2l-1.8 9.2zM678 446q-1.5 8.9-4.3 14-4 6.9-7.2 9-1.4.92-5.2.92-.73 0-1.5-.12-.73-.12-1.5-.36l.62-3.2h1.5q-.03.25-.03.48 0 .66.28 1 .39.53 1.4.53 2.8 0 5.1-2.4l-3.9-18h-1.9l.33-1.7h4.3l3.7 16q2.5-3.8 3.1-5.3 2-4.9 2.4-9.4h-1.9l.33-1.7zM710 456q-1.7 3.3-4.4 5-2.8 1.7-6.5 1.7-2.3 0-4.1-.78-1.8-.78-3-2.3-1.4-1.8-1.8-4-.42-2.2.12-5 1.1-5.4 4.8-8.8 3.8-3.3 8.9-3.3 1.9 0 4 .5t4.3 1.5l-1 5.4h-1.8q-.02-2.9-1.5-4.3-1.5-1.4-4.6-1.4-3.7 0-6.2 2.7-2.4 2.6-3.4 7.8-1 5.1.41 7.8 1.4 2.6 5.1 2.6 2.6 0 4.5-1.2t3.2-3.7zM729 446l-.81 4.2h-1.7q.05-.31.05-.58 0-.81-.38-1.3-.48-.61-1.7-.61-2.1 0-3.5 1.5t-2 4.2l-1.8 9.2h-2.9l2.9-15h-2.8l.3-1.6h5.6l-.55 3q1.2-1.7 2.7-2.6 1.5-.84 3.4-.84.7 0 1.5.11.75.11 1.6.31zM740 460q-2.1 3-5.4 3-2.8 0-4.1-1.9-.97-1.3-.97-3.2 0-.8.17-1.7 1.1-5.5 4.9-8.4 3.3-2.4 7.2-2.4 2.7 0 3.6.45l-2.9 15h2.5l-.31 1.7h-5.1zm-7.5-2.1q0 3.3 3.2 3.3 2 0 3.3-1.6 1.3-1.6 1.9-4.6l1.5-7.5q0-.45-1.2-.45-3 0-5.3 2.3-2.3 2.4-3.1 6.6-.2 1-.2 1.8zM754 453l-.33 1.6q-.23 1.2-.23 2.2 0 1.4.5 2.4.84 1.6 3 1.6 2.2 0 3.7-1.8t2.2-5.2q.3-1.6.3-2.8 0-1.4-.42-2.4-.8-1.8-3-1.8t-3.6 1.6q-1.5 1.6-2 4.6zm-1.8-5.8h-2.8l.33-1.7h5.6l-.5 2.6q1.1-1.6 2.6-2.3 1.5-.75 3.4-.75 3.1 0 4.5 2.4.97 1.6.97 3.8 0 1.2-.25 2.5-.77 3.9-3.2 6.3-2.4 2.4-5.5 2.4-1.9 0-3.1-.73-1.2-.75-1.7-2.3l-1.8 9.2h-2.9zM769 458h1.7q-.06.45-.06.86 0 2.8 3.9 2.8t4.4-2.8q.04-.28.04-.78 0-.48-.53-1.1-.53-.59-2.8-1.4l-2-.7q-2-.69-2.7-1.6-.64-.89-.64-1.9 0-.41.08-.88.45-2.3 2.4-3.6 1.9-1.3 4.7-1.3 2.8 0 5.7 1.3l-.7 3.6h-1.7q.07-.36.07-.67 0-1.1-.8-1.9-.78-.81-2.6-.81-3.7 0-4.2 2.6-.07.27-.07.73 0 .48.5 1 .52.55 2.5 1.2l2.1.7q2.2.73 3 1.8.58.78.58 1.5 0 3.3-2.6 5-2.1 1.4-5.2 1.4t-6-1.4z"/><g fill="#fff"><path d="m680 469-10 16h-1.7l9.6-16h-8.1l-.42 2.2h-1.4l.8-4.1h12zM691 474h-1.9l.25-1.3h1.9l.75-3.9h2.2l-.75 3.9h4.1l-.25 1.3h-4.1l-1.5 7.9q-.18.93-.18 1.5 0 .38.08.56.22.45 1 .45.84 0 1.3-.49.5-.5.73-1.6h1.6q-.42 1.7-1.4 2.5-.98.79-2.7.79-1.9 0-2.5-.83-.38-.5-.38-1.4 0-.6.15-1.4zM704 485q1.7 0 2.9-1.4t1.7-4q.23-1.2.23-2.2 0-1.1-.33-1.9-.62-1.4-2.4-1.4-1.7 0-2.9 1.4-1.1 1.4-1.7 4-.23 1.2-.23 2.2 0 1.1.34 1.9.62 1.4 2.3 1.4zm-.22 1.2q-2.7 0-4-1.8-.9-1.3-.9-3.1 0-.81.18-1.7.57-3 2.6-4.8 2-1.8 4.7-1.8t4 1.8q.89 1.2.89 3 0 .81-.18 1.7-.57 3-2.6 4.8-2 1.8-4.7 1.8zM721 485l.25-1.2h3l2.8-15-4 2.3.3-1.5 4.8-2.8h1.6l-3.2 17h3l-.25 1.2z"/></g></g></g><rect width="30" height="30" x="658" y="138" fill="#fff" ry="3"/><circle cx="672" cy="152" r="3"/><circle cx="664" cy="162" r="3"/><circle cx="682" cy="144" r="3"/><rect width="30" height="30" x="612" y="138" fill="#fff" ry="3"/><circle cx="628" cy="152" r="3"/><circle cx="618" cy="162" r="3"/><circle cx="636" cy="144" r="3"/><g fill="#fff" stroke-linecap="round" stroke-linejoin="round" stroke-width="2" aria-label="10 to 1"><path d="m619 188 .18-.93h2.3l2.1-11-3 1.7.23-1.2 3.6-2.1h1.2l-2.4 12h2.3l-.18.93zM632 185q.39 1.5 1.7 1.5 1.3 0 2.3-1.5.96-1.5 1.5-4.5.58-3 .19-4.5-.38-1.5-1.7-1.5-1.3 0-2.3 1.5-.95 1.5-1.5 4.5-.58 3-.2 4.5zm1.6 2.3q-2.1 0-3-1.8-.84-1.8-.22-5t2.2-5q1.6-1.8 3.7-1.8t3 1.8.22 5q-.62 3.2-2.2 5-1.5 1.8-3.7 1.8zM649 179h-1.4l.18-.94h1.4l.56-2.9h1.6l-.56 2.9h3l-.18.94h-3l-1.2 5.9q-.13.69-.13 1.1 0 .28.06.42.17.33.78.33.63 0 1-.37.36-.38.53-1.2h1.2q-.32 1.3-1.1 1.9-.74.59-2 .59-1.4 0-1.9-.62-.28-.38-.28-1.1 0-.45.11-1zM659 187q1.3 0 2.2-1 .87-1 1.3-3 .18-.91.18-1.6 0-.84-.25-1.4-.47-1-1.8-1-1.3 0-2.2 1-.86 1-1.2 3-.18.91-.18 1.6 0 .85.25 1.4.47 1 1.8 1zm-.17.87q-2 0-3-1.3-.68-.94-.68-2.3 0-.61.13-1.3.43-2.2 1.9-3.6 1.5-1.3 3.6-1.3t3 1.3q.67.93.67 2.3 0 .61-.13 1.3-.43 2.2-1.9 3.6-1.5 1.3-3.5 1.3zM672 188l.18-.93h2.3l2.1-11-3 1.7.23-1.2 3.6-2.1h1.2l-2.4 12h2.3l-.18.93z"/></g><rect width="30" height="30" x="758" y="138" fill="#fff" ry="3"/><circle cx="764" cy="144" r="3"/><circle cx="764" cy="162" r="3"/><circle cx="782" cy="162" r="3"/><circle cx="782" cy="144" r="3"/><rect width="30" height="30" x="712" y="138" fill="#fff" ry="3"/><circle cx="718" cy="144" r="3"/><circle cx="718" cy="162" r="3"/><circle cx="736" cy="162" r="3"/><circle cx="736" cy="144" r="3"/><g fill="#fff" stroke-linecap="round" stroke-linejoin="round" stroke-width="2" aria-label="10 to 1"><path d="m719 188 .18-.93h2.3l2.1-11-3 1.7.23-1.2 3.6-2.1h1.2l-2.4 12h2.3l-.18.93zM732 185q.39 1.5 1.7 1.5 1.3 0 2.3-1.5.96-1.5 1.5-4.5.58-3 .19-4.5-.38-1.5-1.7-1.5-1.3 0-2.3 1.5-.95 1.5-1.5 4.5-.58 3-.2 4.5zm1.6 2.3q-2.1 0-3-1.8-.84-1.8-.22-5t2.2-5q1.6-1.8 3.7-1.8t3 1.8.22 5q-.62 3.2-2.2 5-1.5 1.8-3.7 1.8zM749 179h-1.4l.18-.94h1.4l.56-2.9h1.6l-.56 2.9h3l-.18.94h-3l-1.2 5.9q-.13.69-.13 1.1 0 .28.06.42.17.33.78.33.63 0 1-.37.36-.38.53-1.2h1.2q-.32 1.3-1.1 1.9-.74.59-2 .59-1.4 0-1.9-.62-.28-.38-.28-1.1 0-.45.11-1zM759 187q1.3 0 2.2-1 .87-1 1.3-3 .18-.91.18-1.6 0-.84-.25-1.4-.47-1-1.8-1-1.3 0-2.2 1-.86 1-1.2 3-.18.91-.18 1.6 0 .85.25 1.4.47 1 1.8 1zm-.17.87q-2 0-3-1.3-.68-.94-.68-2.3 0-.61.13-1.3.43-2.2 1.9-3.6 1.5-1.3 3.6-1.3t3 1.3q.67.93.67 2.3 0 .61-.13 1.3-.43 2.2-1.9 3.6-1.5 1.3-3.5 1.3zM772 188l.18-.93h2.3l2.1-11-3 1.7.23-1.2 3.6-2.1h1.2l-2.4 12h2.3l-.18.93z"/></g><rect width="30" height="30" x="658" y="212" fill="#fff" ry="3"/><circle cx="664" cy="236" r="3"/><circle cx="682" cy="218" r="3"/><rect width="30" height="30" x="612" y="212" fill="#fff" ry="3"/><circle cx="618" cy="236" r="3"/><circle cx="636" cy="218" r="3"/><g fill="#fff" stroke-linecap="round" stroke-linejoin="round" stroke-width="2" aria-label="8 to 1"><path d="M632 259q.27-1.4-.27-2.2-.54-.78-1.8-.78-1.3 0-2.1.78-.85.77-1.1 2.2-.27 1.4.27 2.2.55.77 1.8.77 1.3 0 2.1-.77.85-.78 1.1-2.2zm.88-6.4q.24-1.2-.25-1.9-.47-.67-1.6-.67-1.1 0-1.8.67t-.98 1.9q-.23 1.2.25 1.9.48.67 1.6.67 1.1 0 1.8-.67t.97-1.9zm-1.5 3q1.5.2 2.1 1.1.66.9.39 2.3-.35 1.8-1.7 2.8-1.4.99-3.5.99-2.2 0-3.1-.99-.98-1-.62-2.8.27-1.4 1.3-2.3 1-.91 2.6-1.1-1.3-.24-1.8-1-.55-.77-.33-2 .31-1.6 1.6-2.5 1.3-.91 3.2-.91 1.9 0 2.8.91.91.91.61 2.5-.23 1.2-1.1 2-.85.76-2.2 1zM643 254h-1.4l.18-.94h1.4l.56-2.9h1.6l-.56 2.9h3l-.18.94h-3l-1.2 5.9q-.13.69-.13 1.1 0 .28.06.42.17.33.78.33.63 0 1-.37.36-.38.53-1.2h1.2q-.32 1.3-1.1 1.9-.74.59-2 .59-1.4 0-1.9-.62-.28-.38-.28-1.1 0-.45.11-1zM653 262q1.3 0 2.2-1 .87-1 1.3-3 .18-.91.18-1.6 0-.84-.25-1.4-.47-1-1.8-1t-2.2 1q-.86 1-1.2 3-.18.91-.18 1.6 0 .85.25 1.4.47 1 1.8 1zm-.17.87q-2 0-3-1.3-.68-.94-.68-2.3 0-.61.13-1.3.43-2.2 1.9-3.6 1.5-1.3 3.6-1.3t3 1.3q.67.93.67 2.3 0 .61-.13 1.3-.43 2.2-1.9 3.6-1.5 1.3-3.5 1.3zM666 262l.18-.93h2.3l2.1-11-3 1.7.23-1.2 3.6-2.1h1.2l-2.4 12h2.3l-.18.93z"/></g><rect width="30" height="30" x="758" y="212" fill="#fff" ry="3"/><circle cx="764" cy="218" r="3"/><circle cx="772" cy="228" r="3"/><circle cx="764" cy="236" r="3"/><circle cx="782" cy="236" r="3"/><circle cx="782" cy="218" r="3"/><rect width="30" height="30" x="712" y="212" fill="#fff" ry="3"/><circle cx="718" cy="218" r="3"/><circle cx="728" cy="228" r="3"/><circle cx="718" cy="236" r="3"/><circle cx="736" cy="236" r="3"/><circle cx="736" cy="218" r="3"/><g fill="#fff" stroke-linecap="round" stroke-linejoin="round" stroke-width="2" aria-label="8 to 1"><path d="M732 259q.27-1.4-.27-2.2-.54-.78-1.8-.78-1.3 0-2.1.78-.85.77-1.1 2.2-.27 1.4.27 2.2.55.77 1.8.77 1.3 0 2.1-.77.85-.78 1.1-2.2zm.88-6.4q.24-1.2-.25-1.9-.47-.67-1.6-.67-1.1 0-1.8.67t-.98 1.9q-.23 1.2.25 1.9.48.67 1.6.67 1.1 0 1.8-.67t.97-1.9zm-1.5 3q1.5.2 2.1 1.1.66.9.39 2.3-.35 1.8-1.7 2.8-1.4.99-3.5.99-2.2 0-3.1-.99-.98-1-.62-2.8.27-1.4 1.3-2.3 1-.91 2.6-1.1-1.3-.24-1.8-1-.55-.77-.33-2 .31-1.6 1.6-2.5 1.3-.91 3.2-.91 1.9 0 2.8.91.91.91.61 2.5-.23 1.2-1.1 2-.85.76-2.2 1zM743 254h-1.4l.18-.94h1.4l.56-2.9h1.6l-.56 2.9h3l-.18.94h-3l-1.2 5.9q-.13.69-.13 1.1 0 .28.06.42.17.33.78.33.63 0 1-.37.36-.38.53-1.2h1.2q-.32 1.3-1.1 1.9-.74.59-2 .59-1.4 0-1.9-.62-.28-.38-.28-1.1 0-.45.11-1zM753 262q1.3 0 2.2-1 .87-1 1.3-3 .18-.91.18-1.6 0-.84-.25-1.4-.47-1-1.8-1t-2.2 1q-.86 1-1.2 3-.18.91-.18 1.6 0 .85.25 1.4.47 1 1.8 1zm-.17.87q-2 0-3-1.3-.68-.94-.68-2.3 0-.61.13-1.3.43-2.2 1.9-3.6 1.5-1.3 3.6-1.3t3 1.3q.67.93.67 2.3 0 .61-.13 1.3-.43 2.2-1.9 3.6-1.5 1.3-3.5 1.3zM766 262l.18-.93h2.3l2.1-11-3 1.7.23-1.2 3.6-2.1h1.2l-2.4 12h2.3l-.18.93z"/></g><rect width="30" height="30" x="658" y="288" fill="#fff" ry="3"/><circle cx="672" cy="302" r="3"/><rect width="30" height="30" x="612" y="288" fill="#fff" ry="3"/><circle cx="628" cy="302" r="3"/><g fill="#fff" stroke-linecap="round" stroke-linejoin="round" stroke-width="2" aria-label="30 to 1"><path d="M618 325q1.1-.39 2.1-.59.98-.2 1.8-.2 1.9 0 2.8.83.92.83.63 2.3-.23 1.2-1.1 2-.9.79-2.3 1.1 1.6.23 2.3 1.2.71.94.41 2.4-.35 1.8-1.8 2.8-1.4.98-3.7.98-1 0-2-.22-.93-.22-1.8-.67l.49-2.5h.98q-.16 1.3.48 1.9.64.65 2 .65 1.3 0 2.3-.77.93-.78 1.2-2.1.3-1.5-.35-2.3-.64-.8-2.2-.8h-.83l.18-.9h.44q1.5 0 2.4-.63.9-.64 1.2-1.9.22-1.2-.3-1.8-.51-.62-1.7-.62t-2 .56-1.1 1.7h-.98zM629 335q.39 1.5 1.7 1.5 1.3 0 2.3-1.5.96-1.5 1.5-4.5.58-3 .19-4.5-.38-1.5-1.7-1.5-1.3 0-2.3 1.5-.95 1.5-1.5 4.5-.58 3-.2 4.5zm1.6 2.3q-2.1 0-3-1.8-.84-1.8-.22-5t2.2-5q1.6-1.8 3.7-1.8t3 1.8.22 5q-.62 3.2-2.2 5-1.5 1.8-3.7 1.8zM652 329h-1.4l.18-.94h1.4l.56-2.9h1.6l-.56 2.9h3l-.18.94h-3l-1.2 5.9q-.13.69-.13 1.1 0 .28.06.42.17.33.78.33.63 0 1-.37.36-.38.53-1.2h1.2q-.32 1.3-1.1 1.9-.74.59-2 .59-1.4 0-1.9-.62-.28-.38-.28-1.1 0-.45.11-1zM661 337q1.3 0 2.2-1 .87-1 1.3-3 .18-.91.18-1.6 0-.84-.25-1.4-.47-1-1.8-1-1.3 0-2.2 1-.86 1-1.2 3-.18.91-.18 1.6 0 .85.25 1.4.47 1 1.8 1zm-.17.87q-2 0-3-1.3-.68-.94-.68-2.3 0-.61.13-1.3.43-2.2 1.9-3.6 1.5-1.3 3.6-1.3 2 0 3 1.3.67.93.67 2.3 0 .61-.13 1.3-.43 2.2-1.9 3.6-1.5 1.3-3.5 1.3zM675 338l.18-.93h2.3l2.1-11-3 1.7.23-1.2 3.6-2.1h1.2l-2.4 12h2.3l-.18.93z"/></g><rect width="30" height="30" x="758" y="288" fill="#fff" ry="3"/><circle cx="764" cy="294" r="3"/><circle cx="764" cy="302" r="3"/><circle cx="764" cy="312" r="3"/><circle cx="782" cy="302" r="3"/><circle cx="782" cy="312" r="3"/><circle cx="782" cy="294" r="3"/><rect width="30" height="30" x="712" y="288" fill="#fff" ry="3"/><circle cx="718" cy="294" r="3"/><circle cx="718" cy="302" r="3"/><circle cx="718" cy="312" r="3"/><circle cx="736" cy="302" r="3"/><circle cx="736" cy="312" r="3"/><circle cx="736" cy="294" r="3"/><g fill="#fff" stroke-linecap="round" stroke-linejoin="round" stroke-width="2" aria-label="30 to 1"><path d="M718 325q1.1-.39 2.1-.59.98-.2 1.8-.2 1.9 0 2.8.83.92.83.63 2.3-.23 1.2-1.1 2-.9.79-2.3 1.1 1.6.23 2.3 1.2.71.94.41 2.4-.35 1.8-1.8 2.8-1.4.98-3.7.98-1 0-2-.22-.93-.22-1.8-.67l.49-2.5h.98q-.16 1.3.48 1.9.64.65 2 .65 1.3 0 2.3-.77.93-.78 1.2-2.1.3-1.5-.35-2.3-.64-.8-2.2-.8h-.83l.18-.9h.44q1.5 0 2.4-.63.9-.64 1.2-1.9.22-1.2-.3-1.8-.51-.62-1.7-.62t-2 .56-1.1 1.7h-.98zM729 335q.39 1.5 1.7 1.5 1.3 0 2.3-1.5.96-1.5 1.5-4.5.58-3 .19-4.5-.38-1.5-1.7-1.5-1.3 0-2.3 1.5-.95 1.5-1.5 4.5-.58 3-.2 4.5zm1.6 2.3q-2.1 0-3-1.8-.84-1.8-.22-5t2.2-5q1.6-1.8 3.7-1.8t3 1.8.22 5q-.62 3.2-2.2 5-1.5 1.8-3.7 1.8zM752 329h-1.4l.18-.94h1.4l.56-2.9h1.6l-.56 2.9h3l-.18.94h-3l-1.2 5.9q-.13.69-.13 1.1 0 .28.06.42.17.33.78.33.63 0 1-.37.36-.38.53-1.2h1.2q-.32 1.3-1.1 1.9-.74.59-2 .59-1.4 0-1.9-.62-.28-.38-.28-1.1 0-.45.11-1zM761 337q1.3 0 2.2-1 .87-1 1.3-3 .18-.91.18-1.6 0-.84-.25-1.4-.47-1-1.8-1-1.3 0-2.2 1-.86 1-1.2 3-.18.91-.18 1.6 0 .85.25 1.4.47 1 1.8 1zm-.17.87q-2 0-3-1.3-.68-.94-.68-2.3 0-.61.13-1.3.43-2.2 1.9-3.6 1.5-1.3 3.6-1.3 2 0 3 1.3.67.93.67 2.3 0 .61-.13 1.3-.43 2.2-1.9 3.6-1.5 1.3-3.5 1.3zM775 338l.18-.93h2.3l2.1-11-3 1.7.23-1.2 3.6-2.1h1.2l-2.4 12h2.3l-.18.93z"/></g><rect width="30" height="30" x="658" y="362" fill="#fff" ry="3"/><circle cx="664" cy="386" r="3"/><circle cx="682" cy="368" r="3"/><rect width="30" height="30" x="612" y="362" fill="#fff" ry="3"/><circle cx="628" cy="378" r="3"/><g fill="#fff" stroke-linecap="round" stroke-linejoin="round" stroke-width="2" aria-label="15 to 1"><path d="m616 412 .18-.93h2.3l2.1-11-3 1.7.23-1.2 3.6-2.1h1.2l-2.4 12h2.3l-.18.93zM637 399l-.28 1.4h-6l-.73 3.8q.52-.32 1.2-.47.64-.16 1.4-.16 2.1 0 3.1 1.2t.61 3.2q-.4 2.1-1.9 3.3-1.5 1.2-3.7 1.2-.91 0-1.8-.22-.91-.22-1.8-.67l.49-2.5h.99q-.17 1.2.42 1.9.59.66 1.9.66 1.4 0 2.3-.91.93-.91 1.3-2.6.33-1.7-.24-2.6-.56-.91-2-.91-.79 0-1.5.28t-1.2.87h-.76l1.3-6.6zM652 404h-1.4l.18-.94h1.4l.56-2.9h1.6l-.56 2.9h3l-.18.94h-3l-1.2 5.9q-.13.69-.13 1.1 0 .28.06.42.17.33.78.33.63 0 1-.37.36-.38.53-1.2h1.2q-.32 1.3-1.1 1.9-.74.59-2 .59-1.4 0-1.9-.62-.28-.38-.28-1.1 0-.45.11-1zM661 412q1.3 0 2.2-1 .87-1 1.3-3 .18-.91.18-1.6 0-.84-.25-1.4-.47-1-1.8-1-1.3 0-2.2 1-.86 1-1.2 3-.18.91-.18 1.6 0 .85.25 1.4.47 1 1.8 1zm-.17.87q-2 0-3-1.3-.68-.94-.68-2.3 0-.61.13-1.3.43-2.2 1.9-3.6 1.5-1.3 3.6-1.3 2 0 3 1.3.67.93.67 2.3 0 .61-.13 1.3-.43 2.2-1.9 3.6-1.5 1.3-3.5 1.3zM675 412l.18-.93h2.3l2.1-11-3 1.7.23-1.2 3.6-2.1h1.2l-2.4 12h2.3l-.18.93z"/></g><rect width="30" height="30" x="758" y="362" fill="#fff" ry="3"/><circle cx="764" cy="368" r="3"/><circle cx="764" cy="378" r="3"/><circle cx="764" cy="386" r="3"/><circle cx="782" cy="378" r="3"/><circle cx="782" cy="386" r="3"/><circle cx="782" cy="368" r="3"/><rect width="30" height="30" x="712" y="362" fill="#fff" ry="3"/><circle cx="718" cy="368" r="3"/><circle cx="728" cy="378" r="3"/><circle cx="718" cy="386" r="3"/><circle cx="736" cy="386" r="3"/><circle cx="736" cy="368" r="3"/><g fill="#fff" stroke-linecap="round" stroke-linejoin="round" stroke-width="2" aria-label="15 to 1"><path d="m716 412 .18-.93h2.3l2.1-11-3 1.7.23-1.2 3.6-2.1h1.2l-2.4 12h2.3l-.18.93zM737 399l-.28 1.4h-6l-.73 3.8q.52-.32 1.2-.47.64-.16 1.4-.16 2.1 0 3.1 1.2t.61 3.2q-.4 2.1-1.9 3.3-1.5 1.2-3.7 1.2-.91 0-1.8-.22-.91-.22-1.8-.67l.49-2.5h.99q-.17 1.2.42 1.9.59.66 1.9.66 1.4 0 2.3-.91.93-.91 1.3-2.6.33-1.7-.24-2.6-.56-.91-2-.91-.79 0-1.5.28t-1.2.87h-.76l1.3-6.6zM752 404h-1.4l.18-.94h1.4l.56-2.9h1.6l-.56 2.9h3l-.18.94h-3l-1.2 5.9q-.13.69-.13 1.1 0 .28.06.42.17.33.78.33.63 0 1-.37.36-.38.53-1.2h1.2q-.32 1.3-1.1 1.9-.74.59-2 .59-1.4 0-1.9-.62-.28-.38-.28-1.1 0-.45.11-1zM761 412q1.3 0 2.2-1 .87-1 1.3-3 .18-.91.18-1.6 0-.84-.25-1.4-.47-1-1.8-1-1.3 0-2.2 1-.86 1-1.2 3-.18.91-.18 1.6 0 .85.25 1.4.47 1 1.8 1zm-.17.87q-2 0-3-1.3-.68-.94-.68-2.3 0-.61.13-1.3.43-2.2 1.9-3.6 1.5-1.3 3.6-1.3 2 0 3 1.3.67.93.67 2.3 0 .61-.13 1.3-.43 2.2-1.9 3.6-1.5 1.3-3.5 1.3zM775 412l.18-.93h2.3l2.1-11-3 1.7.23-1.2 3.6-2.1h1.2l-2.4 12h2.3l-.18.93z"/></g><g fill="none" stroke="#ff0" stroke-width="2"><g stroke-linecap="round" stroke-linejoin="round"><circle cx="572" cy="182" r="18"/><circle cx="572" cy="222" r="18"/><circle cx="572" cy="261" r="18"/><circle cx="572" cy="300" r="18"/><circle cx="572" cy="339" r="18"/><circle cx="572" cy="378" r="18"/><circle cx="572" cy="418" r="18"/><circle cx="528" cy="178" r="18"/><circle cx="528" cy="218" r="18"/><circle cx="528" cy="259" r="18"/><circle cx="528" cy="300" r="18"/><circle cx="528" cy="341" r="18"/><circle cx="528" cy="382" r="18"/><circle cx="528" cy="422" r="18"/></g><path d="m545 179 10 1.1M545 220l10 .75M545 260l10 .37M545 300h10M545 340l10-.37M545 380l10-.75M545 421l10-1.1"/></g><g fill="#ff0" stroke-linecap="round" stroke-linejoin="round" stroke-width="2" aria-label="C"><path d="M533 181q-.58 1.8-2 2.8-1.4.94-3.5.94-1.3 0-2.4-.44-1.1-.44-2-1.3-.98-.98-1.5-2.2-.47-1.3-.47-2.8 0-3.1 1.8-4.9 1.8-1.9 4.7-1.9 1.1 0 2.3.28t2.6.85v3h-.99q-.33-1.7-1.3-2.4-.98-.78-2.7-.78-2.1 0-3.2 1.5t-1.1 4.4q0 2.9 1.1 4.4 1.1 1.5 3.2 1.5 1.5 0 2.4-.69.95-.7 1.4-2.1zM533 221q-.58 1.8-2 2.8-1.4.94-3.5.94-1.3 0-2.4-.44-1.1-.44-2-1.3-.98-.98-1.5-2.2-.47-1.3-.47-2.8 0-3.1 1.8-4.9 1.8-1.9 4.7-1.9 1.1 0 2.3.28t2.6.85v3h-.99q-.33-1.7-1.3-2.4-.98-.78-2.7-.78-2.1 0-3.2 1.5t-1.1 4.4q0 2.9 1.1 4.4 1.1 1.5 3.2 1.5 1.5 0 2.4-.69.95-.7 1.4-2.1zM533 262q-.58 1.8-2 2.8-1.4.94-3.5.94-1.3 0-2.4-.44-1.1-.44-2-1.3-.98-.98-1.5-2.2-.47-1.3-.47-2.8 0-3.1 1.8-4.9 1.8-1.9 4.7-1.9 1.1 0 2.3.28t2.6.85v3h-.99q-.33-1.7-1.3-2.4-.98-.78-2.7-.78-2.1 0-3.2 1.5t-1.1 4.4q0 2.9 1.1 4.4 1.1 1.5 3.2 1.5 1.5 0 2.4-.69.95-.7 1.4-2.1zM533 303q-.58 1.8-2 2.8-1.4.94-3.5.94-1.3 0-2.4-.44-1.1-.44-2-1.3-.98-.98-1.5-2.2-.47-1.3-.47-2.8 0-3.1 1.8-4.9 1.8-1.9 4.7-1.9 1.1 0 2.3.28t2.6.85v3h-.99q-.33-1.7-1.3-2.4-.98-.78-2.7-.78-2.1 0-3.2 1.5t-1.1 4.4q0 2.9 1.1 4.4 1.1 1.5 3.2 1.5 1.5 0 2.4-.69.95-.7 1.4-2.1zM533 344q-.58 1.8-2 2.8-1.4.94-3.5.94-1.3 0-2.4-.44-1.1-.44-2-1.3-.98-.98-1.5-2.2-.47-1.3-.47-2.8 0-3.1 1.8-4.9 1.8-1.9 4.7-1.9 1.1 0 2.3.28t2.6.85v3h-.99q-.33-1.7-1.3-2.4-.98-.78-2.7-.78-2.1 0-3.2 1.5t-1.1 4.4q0 2.9 1.1 4.4 1.1 1.5 3.2 1.5 1.5 0 2.4-.69.95-.7 1.4-2.1zM533 385q-.58 1.8-2 2.8-1.4.94-3.5.94-1.3 0-2.4-.44-1.1-.44-2-1.3-.98-.98-1.5-2.2-.47-1.3-.47-2.8 0-3.1 1.8-4.9 1.8-1.9 4.7-1.9 1.1 0 2.3.28t2.6.85v3h-.99q-.33-1.7-1.3-2.4-.98-.78-2.7-.78-2.1 0-3.2 1.5t-1.1 4.4q0 2.9 1.1 4.4 1.1 1.5 3.2 1.5 1.5 0 2.4-.69.95-.7 1.4-2.1zM533 426q-.58 1.8-2 2.8-1.4.94-3.5.94-1.3 0-2.4-.44-1.1-.44-2-1.3-.98-.98-1.5-2.2-.47-1.3-.47-2.8 0-3.1 1.8-4.9 1.8-1.9 4.7-1.9 1.1 0 2.3.28t2.6.85v3h-.99q-.33-1.7-1.3-2.4-.98-.78-2.7-.78-2.1 0-3.2 1.5t-1.1 4.4q0 2.9 1.1 4.4 1.1 1.5 3.2 1.5 1.5 0 2.4-.69.95-.7 1.4-2.1z"/></g><g fill="#ff0" stroke-linecap="round" stroke-linejoin="round" stroke-width="2" aria-label="E"><path d="M567 189v-.93h1.7v-11H567v-.94h11v2.9h-1.1v-1.8h-6v4.4h4.3v-1.6h1.1v4.4h-1.1v-1.6h-4.3v5.5h6.2v-1.8h1.1v2.9zM567 228v-.93h1.7v-11H567v-.94h11v2.9h-1.1v-1.8h-6v4.4h4.3v-1.6h1.1v4.4h-1.1v-1.6h-4.3v5.5h6.2v-1.8h1.1v2.9zM567 267v-.93h1.7v-11H567v-.94h11v2.9h-1.1v-1.8h-6v4.4h4.3v-1.6h1.1v4.4h-1.1v-1.6h-4.3v5.5h6.2v-1.8h1.1v2.9zM567 307v-.93h1.7v-11H567v-.94h11v2.9h-1.1v-1.8h-6v4.4h4.3v-1.6h1.1v4.4h-1.1v-1.6h-4.3v5.5h6.2v-1.8h1.1v2.9zM567 346v-.93h1.7v-11H567v-.94h11v2.9h-1.1v-1.8h-6v4.4h4.3v-1.6h1.1v4.4h-1.1v-1.6h-4.3v5.5h6.2v-1.8h1.1v2.9zM567 385v-.93h1.7v-11H567v-.94h11v2.9h-1.1v-1.8h-6v4.4h4.3v-1.6h1.1v4.4h-1.1v-1.6h-4.3v5.5h6.2v-1.8h1.1v2.9zM567 424v-.93h1.7v-11H567v-.94h11v2.9h-1.1v-1.8h-6v4.4h4.3v-1.6h1.1v4.4h-1.1v-1.6h-4.3v5.5h6.2v-1.8h1.1v2.9z"/></g></svg>