<?xml version="1.0" encoding="UTF-8" standalone="no"?> <svg xmlns="http://www.w3.org/2000/svg" style="height: 25px;width: 25px;" viewBox="0 0 39.388671875 24.8828125"> <path fill="#a49f6d" d="M1.0937 19.9225C1.7137 19.9225 2.2037 19.4025 2.2037 18.8125V15.6125H4.1537V18.8125C4.1537 20.5225 5.2137 21.5425 6.9437 21.5425H10.8037L13.1137 24.0625C13.6437 24.6325 14.1337 24.8825 14.8637 24.8825H28.1737C29.9837 24.8825 31.0637 23.8525 31.0637 22.0625V19.5825C31.0637 19.5125 31.1037 19.4825 31.1537 19.4825H32.7837C32.8537 19.4825 32.8837 19.5125 32.8837 19.5825V21.1125C32.8837 22.6525 33.9037 23.6025 35.5737 23.6025H36.7137C38.3637 23.6025 39.3937 22.6725 39.3937 21.1125V11.2425C39.3937 9.6825 38.3637 8.7525 36.7137 8.7525H35.5737C33.9037 8.7525 32.8837 9.6925 32.8837 11.2425V12.5125C32.8837 12.5625 32.8537 12.6025 32.7837 12.6025H31.1537C31.1037 12.6025 31.0637 12.5625 31.0637 12.5125V10.1825C31.0637 8.4925 30.0137 7.4625 28.2637 7.4625H27.1837L24.8837 4.9625C24.3537 4.3725 23.8037 4.1425 23.1337 4.1425H19.9837V2.2025H24.2837C24.8837 2.2025 25.3737 1.6825 25.3737 1.0925C25.3737 0.4925 24.8837 0.0025 24.2837 0.0025H13.4537C12.8537 0.0025 12.3637 0.5025 12.3637 1.1025C12.3637 1.7125 12.8637 2.2025 13.4537 2.2025H17.7737V4.1425H12.5137C11.8237 4.1425 11.2837 4.4025 10.7437 4.9625L8.4537 7.4625H6.9437C5.2237 7.4625 4.1537 8.4925 4.1537 10.1825V13.4125H2.2037V10.2025C2.2037 9.6025 1.6937 9.1025 1.0937 9.1025C0.4937 9.1025 0.0037 9.6125 0.0037 10.2025V18.8125C0.0037 19.4125 0.5037 19.9225 1.0937 19.9225ZM15.1437 22.6825C14.8737 22.6825 14.7937 22.6425 14.6137 22.4625L11.7537 19.3425H6.9637C6.5737 19.3425 6.3537 19.1225 6.3537 18.7125V10.2925C6.3537 9.8825 6.5737 9.6625 6.9637 9.6625H9.4337L12.2637 6.5925C12.4437 6.3825 12.5337 6.3425 12.7737 6.3425H22.8637C23.1037 6.3425 23.2137 6.3825 23.3837 6.5925L26.2237 9.6625H28.2437C28.6337 9.6625 28.8637 9.9025 28.8637 10.2925V14.2225C28.8637 14.5925 29.0837 14.8025 29.4337 14.8025H34.5237C34.8737 14.8025 35.0937 14.5925 35.0937 14.2225V11.3325C35.0937 11.0925 35.2637 10.9525 35.6037 10.9525H36.6937C37.0237 10.9525 37.1837 11.1025 37.1837 11.3325V21.0025C37.1837 21.2425 37.0237 21.3925 36.6937 21.3925H35.6037C35.2637 21.3925 35.0937 21.2625 35.0937 21.0025V17.8525C35.0937 17.4825 34.8737 17.2725 34.5237 17.2725H29.4337C29.0837 17.2725 28.8637 17.4825 28.8637 17.8525V21.9825C28.8637 22.4325 28.6337 22.6825 28.1637 22.6825Z" /></svg>