<?xml version="1.0" encoding="UTF-8" standalone="no"?> <svg xmlns="http://www.w3.org/2000/svg" style="height: 25px;width: 25px;" viewBox="0 0 25.525390625 25.8603515625"> <path fill="#a49f6d" d="M19.2876 15.596V1.616C19.2876 0.726 18.6276 -0.004 17.7076 -0.004C17.0576 -0.004 16.6476 0.296 15.9176 0.946L9.9476 6.246L11.4076 7.726L16.7376 2.886C16.8076 2.816 16.8876 2.776 16.9776 2.776C17.0676 2.776 17.1476 2.846 17.1476 2.966V13.466ZM23.7276 25.556C24.1376 25.966 24.8176 25.966 25.2176 25.556C25.6276 25.126 25.6276 24.476 25.2176 24.066L1.8076 0.656C1.3976 0.246 0.7176 0.246 0.3076 0.656C-0.1024 1.056 -0.1024 1.746 0.3076 2.146ZM5.5176 17.606H9.4276C9.5476 17.606 9.6576 17.646 9.7576 17.736L15.9176 23.256C16.5876 23.846 17.0876 24.116 17.7376 24.116C18.2676 24.116 18.7076 23.876 19.0276 23.406L17.4376 21.836L10.8376 15.916C10.5576 15.666 10.3976 15.616 10.0376 15.616H5.6076C5.0976 15.616 4.8576 15.376 4.8576 14.876V9.246L3.2176 7.606C2.9076 8.036 2.7276 8.656 2.7276 9.456V14.696C2.7276 16.676 3.6576 17.606 5.5176 17.606Z" /></svg>