<?xml version="1.0" encoding="UTF-8" standalone="no"?> <svg xmlns="http://www.w3.org/2000/svg" style="height: 25px;width: 25px;" viewBox="0 0 14.861328125 26.044921875"> <path fill="#a49f6d" d="M6.7637 18.5684C7.7237 18.5684 8.1637 17.9084 8.1637 17.0384V16.5684C8.1937 14.7684 8.8337 14.0184 11.0237 12.5084C13.3737 10.9284 14.8637 9.0884 14.8637 6.4484C14.8637 2.3484 11.5237 -0.0016 7.3737 -0.0016C4.2837 -0.0016 1.5737 1.4584 0.4137 4.0984C0.1237 4.7484 0.0037 5.3684 0.0037 5.8884C0.0037 6.6684 0.4537 7.2184 1.2837 7.2184C1.9837 7.2184 2.4437 6.8084 2.6537 6.1384C3.3537 3.5384 5.0737 2.5584 7.2737 2.5584C9.9437 2.5584 12.0337 4.0584 12.0337 6.4384C12.0337 8.3984 10.8137 9.4884 9.0637 10.7184C6.9137 12.2084 5.3437 13.8084 5.3437 16.2184V17.0784C5.3437 17.9484 5.8237 18.5684 6.7637 18.5684ZM6.7637 26.0484C7.8637 26.0484 8.7237 25.1684 8.7237 24.1084C8.7237 23.0284 7.8637 22.1584 6.7637 22.1584C5.7037 22.1584 4.8237 23.0284 4.8237 24.1084C4.8237 25.1684 5.7037 26.0484 6.7637 26.0484Z" /></svg>