<?xml version="1.0" encoding="UTF-8" standalone="no"?> <svg xmlns="http://www.w3.org/2000/svg" style="height: 25px;width: 25px;" viewBox="0 0 28.875 28.888671875"> <path fill="#426ea6" d="M14.4327 28.8886C22.3627 28.8886 28.8727 22.3686 28.8727 14.4386C28.8727 6.5186 22.3527 -0.0014 14.4327 -0.0014C6.5127 -0.0014 0.0027 6.5186 0.0027 14.4386C0.0027 22.3686 6.5227 28.8886 14.4327 28.8886ZM14.4327 25.2886C8.4327 25.2886 3.6127 20.4486 3.6127 14.4386C3.6127 8.4386 8.4227 3.5986 14.4327 3.5986C20.4427 3.5986 25.2827 8.4386 25.2827 14.4386C25.2827 20.4486 20.4527 25.2886 14.4327 25.2886ZM15.2827 20.8086C16.3127 20.8086 16.9827 20.2386 16.9827 19.0286V9.8486C16.9827 8.7686 16.2327 8.0486 15.0827 8.0486C14.3527 8.0486 13.7827 8.2586 13.0027 8.7686L10.7827 10.2386C10.3127 10.5586 10.0927 10.8986 10.0927 11.4186C10.0927 12.0686 10.5727 12.5886 11.2127 12.5886C11.5027 12.5886 11.6927 12.5486 12.0827 12.2786L13.4927 11.3486H13.6027V19.0286C13.6027 20.2386 14.2727 20.8086 15.2827 20.8086Z" /></svg>