<?xml version="1.0" encoding="UTF-8" standalone="no"?> <svg xmlns="http://www.w3.org/2000/svg" style="height: 25px;width: 25px;" viewBox="0 0 24.158203125 29.435546875"> <path fill="#a49f6d" d="M0.0027 17.3327C0.0027 24.0527 5.3827 29.4327 12.0827 29.4327C18.7827 29.4327 24.1627 24.0527 24.1627 17.3327C24.1627 10.6327 18.7827 5.2627 12.0827 5.2627C11.2427 5.2627 10.4327 5.3627 9.7227 5.4927L13.3527 1.9027C13.5627 1.6827 13.6627 1.4127 13.6627 1.1227C13.6627 0.4927 13.1927 0.0027 12.5927 0.0027C12.2527 0.0027 11.9727 0.1127 11.7827 0.3327L6.1527 6.0427C5.9327 6.2627 5.8127 6.5627 5.8127 6.8627C5.8127 7.1827 5.9227 7.4527 6.1527 7.6827L11.7827 13.3427C11.9927 13.5527 12.2527 13.6627 12.5827 13.6627C13.1927 13.6627 13.6627 13.1927 13.6627 12.5627C13.6627 12.2727 13.5627 12.0027 13.3427 11.7827L9.2727 7.7427C10.0627 7.5427 11.0327 7.4627 12.0827 7.4627C17.5727 7.4627 21.9527 11.8527 21.9527 17.3327C21.9527 22.8327 17.5727 27.2327 12.0827 27.2327C6.6027 27.2327 2.2027 22.8327 2.2027 17.3327C2.2027 16.6827 1.7927 16.2027 1.1327 16.2027C0.4627 16.2027 0.0027 16.6827 0.0027 17.3327Z" /></svg>