<?xml version="1.0" encoding="UTF-8" standalone="no"?> <svg xmlns="http://www.w3.org/2000/svg" style="height: 25px;width: 25px;" viewBox="0 0 17.212890625 30.857421875"> <path fill="#a49f6d" d="M8.6137 30.8583C9.1837 30.8583 9.6537 30.3883 9.6537 29.8183V27.5183C13.8337 27.2083 17.2137 24.8383 17.2137 20.7683C17.2137 17.3883 15.0537 15.3783 10.2237 14.2183L9.6537 14.0783V5.6783C11.9537 5.9483 13.5237 7.2283 14.1937 9.3883C14.4137 10.1083 14.8737 10.4683 15.5537 10.4683C16.3637 10.4683 16.8137 9.9483 16.8137 9.1583C16.8137 8.9383 16.7937 8.7083 16.7237 8.4583C15.9737 5.5683 13.2037 3.5583 9.6537 3.2383V1.0283C9.6537 0.4483 9.1837 -0.0017 8.6137 -0.0017C8.0437 -0.0017 7.5837 0.4483 7.5837 1.0283V3.2383C3.4037 3.6183 0.5037 6.1783 0.5037 9.7783C0.5037 12.9983 2.6437 15.0283 7.2237 16.1283L7.5837 16.2183V25.0783C4.9337 24.7883 3.2137 23.4583 2.6237 21.2083C2.3937 20.4783 1.9437 20.1083 1.2537 20.1083C0.4637 20.1083 0.0037 20.6483 0.0037 21.4483C0.0037 21.6583 0.0237 21.8883 0.0937 22.1383C0.8737 25.2683 3.9537 27.1983 7.5837 27.5083V29.8183C7.5837 30.3883 8.0437 30.8583 8.6137 30.8583ZM3.1737 9.6083C3.1737 7.6983 4.7837 6.0183 7.5837 5.6783V13.5883C4.5837 12.8783 3.1737 11.6083 3.1737 9.6083ZM9.8137 16.7483C13.2237 17.5683 14.5437 18.7483 14.5437 20.9583C14.5437 23.3483 12.7537 24.8583 9.6537 25.0983V16.7083Z" /></svg>