<?xml version="1.0" encoding="UTF-8" standalone="no"?> <svg xmlns="http://www.w3.org/2000/svg" style="height: 25px;width: 25px;" viewBox="0 0 30.515625 24.1171875"> <path fill="#a49f6d" d="M2.7801 17.606H6.7001C6.8201 17.606 6.9301 17.646 7.0301 17.736L13.1901 23.256C13.8501 23.846 14.3601 24.116 15.0101 24.116C15.8901 24.116 16.5601 23.476 16.5601 22.586V1.616C16.5601 0.726 15.8901 -0.004 14.9801 -0.004C14.3301 -0.004 13.9001 0.296 13.1901 0.946L7.0301 6.416C6.9301 6.496 6.8201 6.536 6.7001 6.536H2.7801C0.9201 6.536 0.0001 7.476 0.0001 9.456V14.696C0.0001 16.676 0.9301 17.606 2.7801 17.606ZM26.2401 21.436C26.7401 21.776 27.3701 21.656 27.7401 21.136C29.4901 18.726 30.5201 15.426 30.5201 12.046C30.5201 8.666 29.5001 5.336 27.7401 2.956C27.3701 2.436 26.7401 2.306 26.2401 2.656C25.7301 2.996 25.6501 3.636 26.0401 4.196C27.5401 6.306 28.4001 9.136 28.4001 12.046C28.4001 14.956 27.5101 17.756 26.0401 19.896C25.6601 20.456 25.7301 21.096 26.2401 21.436ZM2.8701 15.616C2.3701 15.616 2.1301 15.376 2.1301 14.876V9.286C2.1301 8.766 2.3701 8.536 2.8701 8.536H7.2501C7.6001 8.536 7.8701 8.466 8.1901 8.176L14.0101 2.886C14.0801 2.816 14.1501 2.776 14.2501 2.776C14.3401 2.776 14.4201 2.846 14.4201 2.966V21.136C14.4201 21.256 14.3401 21.346 14.2501 21.346C14.1801 21.346 14.1001 21.296 14.0101 21.236L8.1901 15.966C7.8701 15.696 7.6001 15.616 7.2501 15.616ZM21.1801 17.866C21.6301 18.186 22.2701 18.086 22.6401 17.556C23.6901 16.176 24.3201 14.136 24.3201 12.046C24.3201 9.956 23.6901 7.926 22.6401 6.536C22.2701 6.006 21.6301 5.896 21.1801 6.216C20.6201 6.606 20.5401 7.286 20.9601 7.846C21.7501 8.946 22.2001 10.456 22.2001 12.046C22.2001 13.626 21.7401 15.136 20.9601 16.246C20.5501 16.816 20.6201 17.476 21.1801 17.866Z" /></svg>