<?xml version="1.0" encoding="UTF-8" standalone="no"?> <svg xmlns="http://www.w3.org/2000/svg" style="height: 25px;width: 25px;" viewBox="0 0 32.634765625 28.71435546875"> <path fill="#a49f6d" d="M7.0237 28.7184H25.5237C27.4637 28.7184 28.6037 27.6084 28.6037 25.6884V12.5584L30.5037 14.1584C30.7737 14.3884 31.0937 14.5884 31.4737 14.5884C32.1137 14.5884 32.6337 14.1984 32.6337 13.5384C32.6337 13.1284 32.4937 12.8584 32.2137 12.6084L28.6037 9.5784V3.9184C28.6037 3.3084 28.2237 2.9284 27.6137 2.9284H26.1537C25.5637 2.9284 25.1737 3.3084 25.1737 3.9184V6.6884L17.9737 0.6484C16.9637 -0.2116 15.7137 -0.2116 14.6837 0.6484L0.4337 12.6084C0.1337 12.8584 0.0037 13.1784 0.0037 13.4984C0.0037 14.0584 0.4337 14.5884 1.1737 14.5884C1.5537 14.5884 1.8737 14.3884 2.1637 14.1584L3.9337 12.6484V25.6884C3.9337 27.6084 5.0737 28.7184 7.0237 28.7184ZM20.2637 17.3484C20.2637 16.7284 19.8537 16.3184 19.2237 16.3184H13.4237C12.7837 16.3184 12.3737 16.7284 12.3737 17.3484V26.5084H7.4937C6.6137 26.5084 6.1437 26.0184 6.1437 25.1284V10.8084L15.8437 2.6684C16.1437 2.3984 16.5137 2.3984 16.8137 2.6684L26.4037 10.7084V25.1284C26.4037 26.0184 25.9237 26.5084 25.0637 26.5084H20.2637Z" /></svg>