<?xml version="1.0" encoding="UTF-8" standalone="no"?> <svg xmlns="http://www.w3.org/2000/svg" style="height: 25px;width: 25px;" viewBox="0 0 30.2421875 29.794326806627417"> <path fill="#a49f6d" d="M15.1027 27.9614C15.4327 27.9614 15.7627 27.9514 16.0927 27.9214L16.8527 29.3514C17.0227 29.6814 17.3527 29.8514 17.7327 29.7814C18.1027 29.7114 18.3627 29.4414 18.4027 29.0514L18.6527 27.4714C19.2727 27.3014 19.8927 27.0714 20.4927 26.8114L21.6727 27.8514C21.9427 28.1014 22.3227 28.1814 22.6827 27.9714C22.9927 27.8014 23.1427 27.4414 23.0527 27.0614L22.7327 25.5114C23.2527 25.1314 23.7727 24.7114 24.2427 24.2514L25.6927 24.8614C26.0727 25.0114 26.4327 24.9114 26.7027 24.6014C26.9227 24.3214 26.9627 23.9414 26.7527 23.6114L25.9227 22.2614C26.2727 21.7214 26.6027 21.1514 26.9027 20.5514L28.4927 20.6014C28.8427 20.6314 29.2027 20.4414 29.3127 20.0614C29.4327 19.7014 29.3127 19.3514 29.0227 19.1114L27.7927 18.1314C27.9627 17.5014 28.0727 16.8414 28.1227 16.1614L29.6127 15.6814C29.9927 15.5614 30.2427 15.2714 30.2427 14.8914C30.2427 14.4914 29.9927 14.2214 29.6127 14.1014L28.1227 13.6214C28.0727 12.9314 27.9627 12.2914 27.7927 11.6514L29.0227 10.6514C29.3027 10.4314 29.4327 10.0914 29.3127 9.7314C29.2027 9.3514 28.8427 9.1614 28.4927 9.1914L26.9027 9.2314C26.6027 8.6314 26.2727 8.0714 25.9227 7.5114L26.7527 6.1514C26.9427 5.8514 26.9227 5.4714 26.7027 5.2014C26.4327 4.8714 26.0727 4.7914 25.7027 4.9414L24.2427 5.5114C23.7727 5.0914 23.2527 4.6514 22.7327 4.2714L23.0527 2.7314C23.1327 2.3214 22.9927 1.9814 22.6827 1.8214C22.3227 1.6114 21.9427 1.6714 21.6727 1.9314L20.4927 2.9514C19.8927 2.7114 19.2727 2.4914 18.6527 2.3114L18.4027 0.7414C18.3627 0.3614 18.1027 0.0814 17.7327 0.0114C17.3527 -0.0486 17.0127 0.1114 16.8527 0.4214L16.0927 1.8614C15.7627 1.8314 15.4327 1.8214 15.1027 1.8214C14.7627 1.8214 14.4527 1.8314 14.1127 1.8614L13.3527 0.4214C13.1927 0.1114 12.8627 -0.0486 12.4827 0.0114C12.1127 0.0814 11.8827 0.3614 11.8127 0.7414L11.5627 2.3014C10.9327 2.4914 10.3227 2.7114 9.7027 2.9514L8.5427 1.9414C8.2627 1.6714 7.8927 1.6114 7.5227 1.8214C7.2227 1.9814 7.0827 2.3214 7.1627 2.7314L7.4627 4.2714C6.9627 4.6514 6.4227 5.0914 5.9627 5.5114L4.5127 4.9414C4.1427 4.7914 3.7827 4.8714 3.5127 5.2014C3.2927 5.4714 3.2527 5.8514 3.4427 6.1514L4.2927 7.5114C3.9327 8.0714 3.6227 8.6314 3.3127 9.2314L1.7227 9.1914C1.3527 9.1614 1.0127 9.3514 0.9027 9.7314C0.7827 10.0914 0.8927 10.4314 1.1927 10.6514L2.4227 11.6514C2.2527 12.2914 2.1427 12.9314 2.1027 13.6214L0.5927 14.1014C0.2027 14.2114 0.0027 14.4914 0.0027 14.8914C0.0027 15.2914 0.2027 15.5614 0.5927 15.6814L2.1027 16.1614C2.1427 16.8414 2.2527 17.5014 2.4227 18.1314L1.1927 19.1114C0.8927 19.3514 0.7827 19.7014 0.9027 20.0614C1.0127 20.4414 1.3527 20.6314 1.7227 20.6014L3.3127 20.5514C3.6227 21.1514 3.9327 21.7214 4.2927 22.2614L3.4627 23.6114C3.2627 23.9414 3.2827 24.3214 3.5127 24.6014C3.7827 24.9114 4.1427 25.0114 4.5227 24.8614L5.9627 24.2514C6.4227 24.7114 6.9627 25.1314 7.4627 25.5114L7.1627 27.0614C7.0927 27.4414 7.2227 27.8014 7.5227 27.9714C7.8927 28.1814 8.2627 28.1014 8.5427 27.8514L9.7027 26.8114C10.3227 27.0714 10.9327 27.3014 11.5627 27.4814L11.8127 29.0514C11.8827 29.4414 12.1127 29.7114 12.4827 29.7814C12.8627 29.8514 13.1927 29.6814 13.3527 29.3514L14.1127 27.9214C14.4327 27.9514 14.7627 27.9614 15.1027 27.9614ZM15.0827 11.3314C14.7627 11.3314 14.4527 11.3814 14.1627 11.4614L10.4327 5.0614C11.8427 4.3914 13.4127 4.0214 15.1027 4.0214C20.8527 4.0214 25.3427 8.3414 25.8127 13.9314H18.5227C18.0927 12.4314 16.7227 11.3314 15.0827 11.3314ZM4.3927 14.9014C4.3927 11.2414 6.0827 8.0314 8.7727 6.0614L12.5127 12.4314C11.8927 13.0714 11.5127 13.9514 11.5127 14.9214C11.5127 15.8914 11.8927 16.7614 12.5227 17.4014L8.6927 23.6714C6.0527 21.7014 4.3927 18.5114 4.3927 14.9014ZM15.0827 16.4314C14.2227 16.4314 13.5527 15.7914 13.5527 14.9214C13.5527 14.0414 14.2227 13.3714 15.0827 13.3714C15.9527 13.3714 16.6227 14.0414 16.6227 14.9214C16.6227 15.7914 15.9527 16.4314 15.0827 16.4314ZM15.1027 25.7614C13.3827 25.7614 11.7627 25.3614 10.3327 24.6614L14.1627 18.3614C14.4627 18.4414 14.7627 18.4814 15.0827 18.4814C16.7527 18.4814 18.1427 17.3514 18.5427 15.8214H25.8227C25.3727 21.4214 20.8627 25.7614 15.1027 25.7614Z" /></svg>